<svg width="96" height="96" viewBox="0 0 96 96" fill="none" xmlns="http://www.w3.org/2000/svg">
<path fill-rule="evenodd" clip-rule="evenodd" d="M92 67.0493H4V68.479C4 73.5281 8.09272 78.5903 13.1419 78.5903H82.8581C87.9073 78.5903 92 73.5281 92 68.479V67.0493Z" stroke="white" stroke-width="3"/>
<path d="M42.9508 72.8198H58.8197" stroke="white" stroke-width="3"/>
<path fill-rule="evenodd" clip-rule="evenodd" d="M79.2355 18C83.197 18 86.2294 21.0165 86.2294 24.737V67.0492H11.213V24.737C11.213 20.8881 13.6049 18 17.5663 18H79.2355Z" stroke="white" stroke-width="3"/>
<path d="M16.9836 62.7213V23.7705H80.459V62.7213" stroke="white" stroke-width="3"/>
<path d="M74.6885 62.7211V58.3933H68.442C67.9241 56.0259 66.9878 53.8201 65.7197 51.8423L70.1428 47.4192L64.0218 41.2982L59.6001 45.7227C57.6223 44.4546 55.4165 43.5184 53.0492 43.0005V36.7539H44.3934V43.0005C42.0261 43.5184 39.8203 44.4546 37.8425 45.7227L33.4208 41.2996L27.2998 47.4207L31.7229 51.8423C30.4548 53.8201 29.5185 56.0259 29.0006 58.3933H22.7541V62.7211" stroke="#50C3FC" stroke-width="3"/>
<path d="M35.7377 62.7214C35.7377 55.5501 41.55 49.7378 48.7213 49.7378C55.8926 49.7378 61.7049 55.5501 61.7049 62.7214" stroke="#50C3FC" stroke-width="3"/>
<path d="M42.9508 62.7212C42.9508 59.5344 45.5345 56.9507 48.7213 56.9507C51.9081 56.9507 54.4918 59.5344 54.4918 62.7212" stroke="#50C3FC" stroke-width="3"/>
</svg>
