<svg width="672" height="604" viewBox="0 0 672 604" fill="none" xmlns="http://www.w3.org/2000/svg">
<circle opacity="0.1" cx="330.5" cy="307.5" r="276.5" fill="url(#paint0_linear_154_3501)"/>
<rect x="97" y="196" width="392" height="470" transform="rotate(-30 97 196)" fill="white"/>
<rect x="97.683" y="196.183" width="391" height="469" transform="rotate(-30 97.683 196.183)" stroke="#101820" stroke-opacity="0.2"/>
<rect opacity="0.1" x="110.66" y="199.66" width="372" height="80" transform="rotate(-30 110.66 199.66)" fill="#7A2582"/>
<g opacity="0.1">
<rect x="200.775" y="297.744" width="177" height="8" transform="rotate(-30 200.775 297.744)" fill="#5D40BD"/>
<rect x="207.275" y="309.002" width="144.935" height="8" transform="rotate(-30 207.275 309.002)" fill="#5D40BD"/>
<rect x="213.775" y="320.26" width="50.0217" height="8" transform="rotate(-30 213.775 320.26)" fill="#5D40BD"/>
<rect x="220.275" y="331.519" width="94.913" height="8" transform="rotate(-30 220.275 331.519)" fill="#5D40BD"/>
</g>
<g opacity="0.1">
<rect x="239.775" y="365.294" width="177" height="8" transform="rotate(-30 239.775 365.294)" fill="#5D40BD"/>
<rect x="246.275" y="376.552" width="144.935" height="8" transform="rotate(-30 246.275 376.552)" fill="#5D40BD"/>
<rect x="252.775" y="387.81" width="50.0217" height="8" transform="rotate(-30 252.775 387.81)" fill="#5D40BD"/>
<rect x="259.275" y="399.069" width="94.913" height="8" transform="rotate(-30 259.275 399.069)" fill="#5D40BD"/>
</g>
<g opacity="0.1">
<rect x="278.775" y="432.844" width="177" height="8" transform="rotate(-30 278.775 432.844)" fill="#5D40BD"/>
<rect x="285.275" y="444.102" width="144.935" height="8" transform="rotate(-30 285.275 444.102)" fill="#5D40BD"/>
<rect x="291.775" y="455.36" width="128" height="8" transform="rotate(-30 291.775 455.36)" fill="#5D40BD"/>
<rect x="298.275" y="466.618" width="59" height="8" transform="rotate(-30 298.275 466.618)" fill="#5D40BD"/>
</g>
<g opacity="0.1">
<rect x="317.775" y="500.394" width="139" height="8" transform="rotate(-30 317.775 500.394)" fill="#5D40BD"/>
<rect x="324.275" y="511.652" width="101" height="8" transform="rotate(-30 324.275 511.652)" fill="#5D40BD"/>
<rect x="330.775" y="522.91" width="128" height="8" transform="rotate(-30 330.775 522.91)" fill="#5D40BD"/>
<rect x="337.275" y="534.168" width="79" height="8" transform="rotate(-30 337.275 534.168)" fill="#5D40BD"/>
</g>
<path d="M408.791 205.358L397.109 185.124L393.399 187.266C394.218 189.62 393.114 192.461 390.171 194.202L391.845 197.101L396.708 194.293L404.52 207.824L408.791 205.358ZM416.207 174.722C415.077 174.709 413.297 175.155 411.427 176.235C404.755 180.087 402.867 187.329 407.061 194.593C410.589 200.704 416.197 201.706 420.624 199.15C425.083 196.576 426.74 191.67 424.346 187.524C421.934 183.346 417.585 182.365 413.438 184.759C411.069 186.127 410.033 188.221 409.933 189.776C408.205 185.702 409.859 182.087 413.288 180.107C414.566 179.369 415.949 179.028 417.038 178.898L416.207 174.722ZM412.989 194.205C411.783 192.116 412.666 189.902 414.599 188.786C416.563 187.652 418.923 187.994 420.129 190.083C421.335 192.172 420.469 194.417 418.505 195.551C416.635 196.631 414.177 196.263 412.989 194.205ZM414.308 231.041L407.927 219.989L406.617 220.745L412.998 231.797L414.308 231.041ZM421.692 225.344C421.971 225.827 422.26 226.221 422.391 226.374L423.606 225.672C423.485 225.534 423.15 225.062 422.718 224.314L417.021 214.447L415.774 215.167L418.663 220.171C418.054 219.691 416.862 219.319 415.428 220.147C413.339 221.353 412.994 223.922 414.245 226.089C415.523 228.303 417.84 229.292 419.991 228.05C421.285 227.303 421.655 226.072 421.575 225.141L421.692 225.344ZM419.452 226.865C418.049 227.675 416.446 227.021 415.492 225.369C414.538 223.717 414.767 222.025 416.185 221.206C417.604 220.387 419.199 221.026 420.153 222.678C421.107 224.33 420.855 226.055 419.452 226.865ZM424.182 219.395C423.621 218.244 423.909 216.726 425.203 215.979C426.621 215.16 427.925 215.655 428.64 216.821L424.182 219.395ZM429.937 218.671C430.154 219.73 429.882 220.844 428.619 221.573C427.279 222.347 425.618 221.954 424.799 220.536L424.763 220.473L430.515 217.152C430.468 217.034 430.384 216.854 430.294 216.698C428.98 214.422 426.809 213.577 424.548 214.882C422.662 215.971 421.919 218.499 423.278 220.853C424.727 223.363 427.272 223.847 429.267 222.695C430.998 221.696 431.564 219.976 431.238 218.44L429.937 218.671ZM433.104 214.328C432.429 213.158 432.523 211.774 433.723 211.081C435.08 210.298 436.082 210.883 436.712 211.974L439.367 216.573L440.615 215.853L437.852 211.067C436.916 209.446 435.305 208.671 433.512 209.706C432.53 210.273 431.927 211.245 431.948 212.397L431.3 211.275L430.084 211.977L434.395 219.444L435.642 218.724L433.104 214.328ZM439.003 203.668L437.834 204.343L438.545 205.574C438.95 206.276 438.875 206.901 438.111 207.342L437.628 207.621L438.276 208.744L439.772 207.88L442.256 212.182C443.039 213.538 444.275 213.843 445.507 213.132C445.99 212.853 446.294 212.552 446.408 212.425L445.796 211.365C445.689 211.468 445.435 211.677 445.217 211.803C444.422 212.262 443.854 212.07 443.404 211.29L441.019 207.16L442.781 206.143L442.133 205.02L440.371 206.037L439.003 203.668ZM449.404 210.778L445.093 203.311L443.845 204.031L448.156 211.498L449.404 210.778ZM441.833 201.265C442.13 201.78 442.794 201.957 443.308 201.66C443.822 201.363 444 200.7 443.703 200.185C443.406 199.671 442.742 199.493 442.228 199.79C441.714 200.087 441.536 200.751 441.833 201.265ZM458.512 205.519L454.201 198.052L449.338 200.86L448.555 199.504C447.934 198.429 448.431 197.705 449.039 197.354C449.397 197.147 449.636 197.093 449.772 197.076L449.151 196.001C449.006 196.001 448.656 196.079 448.203 196.34C446.878 197.105 446.345 198.556 447.29 200.193L448.091 201.58L446.625 202.426L447.273 203.549L448.739 202.703L452.402 209.047L453.649 208.327L449.986 201.983L453.602 199.895L457.265 206.239L458.512 205.519ZM450.941 196.006C451.238 196.521 451.902 196.698 452.417 196.401C452.931 196.104 453.109 195.441 452.812 194.926C452.515 194.412 451.851 194.234 451.337 194.531C450.822 194.828 450.644 195.492 450.941 196.006ZM459.165 199.198C458.604 198.046 458.892 196.529 460.186 195.782C461.604 194.963 462.908 195.457 463.623 196.624L459.165 199.198ZM464.92 198.474C465.136 199.533 464.865 200.646 463.602 201.375C462.261 202.149 460.601 201.757 459.782 200.338L459.746 200.276L465.498 196.955C465.45 196.837 465.367 196.657 465.277 196.501C463.963 194.225 461.791 193.379 459.531 194.684C457.645 195.773 456.901 198.302 458.26 200.656C459.709 203.165 462.255 203.65 464.25 202.498C465.98 201.499 466.546 199.779 466.22 198.242L464.92 198.474ZM474.166 195.048C474.445 195.531 474.734 195.925 474.865 196.078L476.08 195.376C475.959 195.238 475.625 194.767 475.193 194.018L469.496 184.151L468.248 184.871L471.137 189.875C470.528 189.395 469.336 189.023 467.902 189.851C465.813 191.057 465.468 193.626 466.719 195.793C467.997 198.007 470.314 198.997 472.465 197.755C473.759 197.008 474.129 195.776 474.049 194.845L474.166 195.048ZM471.926 196.569C470.523 197.379 468.92 196.725 467.966 195.073C467.012 193.421 467.241 191.73 468.659 190.911C470.078 190.092 471.673 190.73 472.627 192.382C473.581 194.034 473.329 195.759 471.926 196.569Z" fill="#101820"/>
<path d="M436.344 262.585C435.12 260.465 434.388 258.476 434.465 256.811C434.513 255.453 435.101 254.24 436.567 253.394C438.063 252.53 439.345 252.663 440.545 253.301C442.057 254.048 443.413 255.677 444.637 257.797C445.861 259.917 446.593 261.905 446.485 263.589C446.437 264.947 445.911 266.123 444.415 266.987C442.949 267.833 441.605 267.737 440.405 267.099C438.924 266.333 437.568 264.705 436.344 262.585ZM432.042 265.069C433.536 267.656 435.399 269.948 437.977 271.245C440.469 272.466 443.462 272.609 446.611 270.791C449.759 268.973 451.132 266.31 451.289 263.559C451.455 260.678 450.434 257.9 448.94 255.313C447.446 252.725 445.551 250.452 442.973 249.155C440.512 247.916 437.519 247.773 434.371 249.591C431.222 251.409 429.849 254.072 429.661 256.841C429.495 259.722 430.548 262.481 432.042 265.069ZM455.316 294.258C457.842 292.8 458.748 290.302 458.113 287.905L456.716 288.15C457.182 290.001 456.588 291.924 454.623 293.058C452.519 294.273 449.602 293.899 447.865 290.891C446.137 287.898 447.272 285.185 449.376 283.97C451.263 282.881 453.148 283.122 454.568 284.609L455.541 283.487C453.771 281.682 451.193 281.32 448.683 282.769C445.956 284.344 444.422 287.952 446.555 291.647C448.688 295.341 452.511 295.878 455.316 294.258ZM460.607 280.666C458.456 281.908 457.82 284.478 459.143 286.77C460.475 289.077 463.019 289.811 465.17 288.569C467.321 287.327 467.957 284.757 466.625 282.45C465.302 280.158 462.758 279.424 460.607 280.666ZM461.255 281.788C462.595 281.014 464.334 281.361 465.378 283.17C466.431 284.993 465.862 286.673 464.522 287.447C463.181 288.221 461.443 287.873 460.39 286.05C459.346 284.241 459.914 282.562 461.255 281.788ZM469.416 279.965C468.741 278.796 468.836 277.411 470.036 276.718C471.392 275.935 472.395 276.52 473.025 277.611L475.68 282.21L476.927 281.49L474.164 276.704C473.228 275.083 471.617 274.309 469.825 275.344C468.842 275.911 468.239 276.883 468.26 278.034L467.612 276.912L466.396 277.614L470.707 285.081L471.954 284.361L469.416 279.965ZM485.935 276.29L481.624 268.823L476.76 271.631L475.977 270.274C475.356 269.199 475.853 268.476 476.461 268.125C476.819 267.918 477.058 267.863 477.194 267.847L476.573 266.771C476.428 266.772 476.078 266.849 475.626 267.11C474.301 267.875 473.767 269.327 474.712 270.963L475.513 272.351L474.048 273.197L474.696 274.319L476.161 273.473L479.824 279.818L481.071 279.098L477.408 272.753L481.025 270.665L484.688 277.01L485.935 276.29ZM478.364 266.776C478.661 267.291 479.325 267.469 479.839 267.172C480.353 266.875 480.531 266.211 480.234 265.696C479.937 265.182 479.273 265.004 478.759 265.301C478.245 265.598 478.067 266.262 478.364 266.776ZM488.034 265.059C487.907 265.091 487.671 265.186 487.468 265.303C486.642 265.78 485.898 266.687 486.045 268.057L485.271 266.717L484.055 267.419L488.366 274.886L489.613 274.166L487.381 270.3C486.409 268.616 486.853 267.404 488.1 266.684C488.318 266.558 488.561 266.439 488.799 266.384L488.034 265.059ZM490.751 263.553L489.535 264.255L493.846 271.722L495.094 271.002L492.484 266.481C491.809 265.312 492.037 264.016 493.16 263.368C494.344 262.684 495.349 263.164 495.943 264.193L498.679 268.932L499.926 268.212L497.307 263.675C496.659 262.553 496.885 261.217 497.992 260.578C499.161 259.903 500.166 260.383 500.76 261.412L503.496 266.151L504.743 265.431L501.926 260.551C500.846 258.681 499.09 258.448 497.734 259.231C496.674 259.843 496.008 260.85 496.09 262.216C495.149 261.45 493.946 261.418 492.917 262.012C491.95 262.57 491.334 263.59 491.363 264.613L490.751 263.553ZM505.296 259.167C504.735 258.015 505.023 256.498 506.317 255.751C507.736 254.932 509.039 255.426 509.755 256.593L505.296 259.167ZM511.051 258.442C511.268 259.502 510.996 260.615 509.733 261.344C508.393 262.118 506.732 261.726 505.913 260.307L505.877 260.245L511.629 256.924C511.582 256.806 511.498 256.625 511.408 256.469C510.094 254.193 507.923 253.348 505.662 254.653C503.776 255.742 503.033 258.27 504.392 260.624C505.841 263.134 508.386 263.618 510.381 262.466C512.112 261.467 512.678 259.748 512.352 258.211L511.051 258.442ZM520.297 255.016C520.576 255.499 520.866 255.893 520.996 256.047L522.212 255.345C522.091 255.207 521.756 254.735 521.324 253.987L515.627 244.119L514.38 244.839L517.269 249.843C516.66 249.364 515.468 248.992 514.034 249.82C511.945 251.026 511.599 253.595 512.85 255.762C514.128 257.975 516.446 258.965 518.597 257.723C519.891 256.976 520.26 255.744 520.18 254.814L520.297 255.016ZM518.058 256.538C516.655 257.348 515.051 256.694 514.097 255.042C513.143 253.389 513.372 251.698 514.791 250.879C516.209 250.06 517.804 250.698 518.758 252.351C519.712 254.003 519.461 255.728 518.058 256.538Z" fill="#101820"/>
<path d="M473.844 327.537C472.62 325.417 471.888 323.428 471.965 321.762C472.013 320.405 472.601 319.192 474.067 318.346C475.563 317.482 476.845 317.615 478.045 318.252C479.557 319 480.913 320.629 482.137 322.749C483.361 324.869 484.093 326.857 483.985 328.541C483.937 329.898 483.411 331.075 481.915 331.939C480.449 332.785 479.105 332.688 477.905 332.051C476.424 331.285 475.068 329.657 473.844 327.537ZM469.542 330.021C471.036 332.608 472.899 334.9 475.477 336.196C477.969 337.418 480.962 337.561 484.111 335.743C487.259 333.925 488.632 331.262 488.789 328.51C488.955 325.63 487.934 322.852 486.44 320.265C484.946 317.677 483.051 315.404 480.473 314.107C478.012 312.867 475.019 312.724 471.871 314.542C468.722 316.36 467.349 319.023 467.161 321.793C466.995 324.674 468.048 327.433 469.542 330.021ZM492.816 359.21C495.342 357.752 496.248 355.254 495.613 352.857L494.216 353.102C494.682 354.953 494.088 356.875 492.123 358.009C490.019 359.224 487.102 358.851 485.365 355.843C483.637 352.85 484.772 350.136 486.876 348.921C488.763 347.832 490.648 348.074 492.068 349.561L493.041 348.439C491.271 346.633 488.693 346.272 486.183 347.721C483.456 349.296 481.922 352.904 484.055 356.599C486.188 360.293 490.011 360.83 492.816 359.21ZM498.985 345.339C498.858 345.371 498.622 345.466 498.419 345.583C497.593 346.06 496.849 346.967 496.996 348.337L496.222 346.997L495.006 347.699L499.317 355.166L500.564 354.446L498.332 350.58C497.36 348.896 497.803 347.684 499.051 346.964C499.269 346.838 499.512 346.719 499.75 346.664L498.985 345.339ZM506.044 351.282L501.733 343.815L500.486 344.535L504.797 352.002L506.044 351.282ZM498.474 341.769C498.771 342.283 499.434 342.461 499.949 342.164C500.463 341.867 500.641 341.203 500.344 340.689C500.047 340.174 499.383 339.996 498.869 340.293C498.354 340.59 498.177 341.254 498.474 341.769ZM504.611 338.994L503.441 339.669L504.152 340.901C504.557 341.602 504.482 342.228 503.718 342.669L503.235 342.948L503.883 344.07L505.38 343.206L507.864 347.509C508.647 348.865 509.883 349.17 511.114 348.459C511.597 348.18 511.902 347.879 512.015 347.751L511.403 346.691C511.296 346.795 511.043 347.003 510.825 347.129C510.03 347.588 509.462 347.397 509.012 346.617L506.627 342.486L508.388 341.469L507.74 340.347L505.979 341.364L504.611 338.994ZM515.011 346.105L510.7 338.638L509.453 339.358L513.764 346.825L515.011 346.105ZM507.44 336.592C507.737 337.106 508.401 337.284 508.915 336.987C509.43 336.69 509.608 336.026 509.311 335.512C509.014 334.997 508.35 334.819 507.835 335.116C507.321 335.413 507.143 336.077 507.44 336.592ZM516.839 336.299C518.179 335.525 519.318 336.094 519.98 336.772L520.823 335.641C519.828 334.636 518.108 334.07 516.191 335.177C514.086 336.392 513.432 338.931 514.773 341.254C516.087 343.53 518.618 344.313 520.769 343.071C522.687 341.964 523.029 340.145 522.749 338.831L521.379 338.978C521.556 339.79 521.54 341.13 520.121 341.949C518.796 342.714 517.055 342.326 516.02 340.534C514.976 338.725 515.529 337.055 516.839 336.299ZM524.071 338.234C524.728 339.372 526.26 339.901 527.803 339.01C529.144 338.236 529.532 337.035 529.508 336.239C529.841 336.815 530.119 337.153 530.249 337.307L531.465 336.605C531.284 336.398 531.012 336.035 530.652 335.412L528.474 331.639C527.637 330.19 526.046 329.487 523.926 330.711C522.321 331.638 521.632 333.324 522.295 334.833L523.641 334.429C523.201 333.416 523.478 332.383 524.569 331.753C525.739 331.078 526.669 331.393 527.155 332.235C527.344 332.562 527.354 332.868 526.853 333.261L525.014 334.718C523.812 335.661 523.315 336.925 524.071 338.234ZM527.347 337.86C526.49 338.355 525.633 338.06 525.282 337.452C524.859 336.719 525.14 336.017 525.794 335.494L528.019 333.731L528.307 334.23C529.225 335.82 528.641 337.113 527.347 337.86ZM534.968 334.582L528.461 323.312L527.214 324.032L533.721 335.302L534.968 334.582Z" fill="#101820"/>
<path d="M516.863 376.416C515.733 376.403 513.954 376.848 512.083 377.928C505.411 381.78 503.523 389.023 507.717 396.287C511.245 402.397 516.854 403.399 521.281 400.843C525.739 398.269 527.396 393.364 525.002 389.217C522.59 385.039 518.241 384.059 514.095 386.453C511.725 387.821 510.69 389.915 510.589 391.469C508.861 387.396 510.515 383.78 513.944 381.8C515.223 381.062 516.605 380.721 517.694 380.591L516.863 376.416ZM513.645 395.899C512.439 393.81 513.323 391.596 515.256 390.48C517.22 389.346 519.579 389.688 520.785 391.777C521.991 393.866 521.126 396.111 519.162 397.245C517.291 398.325 514.833 397.956 513.645 395.899ZM526.808 425.896L520.427 414.844L519.117 415.6L525.498 426.652L526.808 425.896ZM528.265 419.194C527.59 418.025 527.684 416.64 528.884 415.947C530.241 415.164 531.243 415.749 531.873 416.84L534.528 421.439L535.775 420.719L533.012 415.933C532.076 414.312 530.465 413.538 528.673 414.573C527.691 415.14 527.088 416.112 527.109 417.263L526.461 416.141L525.245 416.843L529.556 424.31L530.803 423.59L528.265 419.194ZM538.189 410.866L537.541 409.744L535.608 410.86L534.825 409.503C534.204 408.428 534.701 407.705 535.309 407.354C535.668 407.147 535.906 407.092 536.042 407.076L535.421 406C535.276 406.001 534.926 406.078 534.474 406.339C533.149 407.104 532.615 408.556 533.56 410.192L534.361 411.58L532.896 412.426L533.544 413.548L535.009 412.702L538.672 419.047L539.919 418.327L536.256 411.982L538.189 410.866ZM541.985 406.887C539.834 408.129 539.198 410.699 540.521 412.991C541.853 415.298 544.397 416.032 546.548 414.79C548.7 413.548 549.336 410.978 548.004 408.671C546.681 406.379 544.137 405.645 541.985 406.887ZM542.633 408.009C543.974 407.235 545.712 407.583 546.756 409.391C547.809 411.215 547.241 412.894 545.9 413.668C544.56 414.442 542.821 414.095 541.768 412.271C540.724 410.463 541.293 408.783 542.633 408.009ZM551.754 401.476C551.627 401.507 551.391 401.602 551.188 401.719C550.362 402.196 549.618 403.104 549.765 404.474L548.991 403.133L547.775 403.835L552.086 411.302L553.333 410.582L551.101 406.716C550.129 405.033 550.572 403.821 551.819 403.101C552.038 402.975 552.28 402.855 552.519 402.801L551.754 401.476ZM554.471 399.969L553.255 400.671L557.566 408.138L558.813 407.418L556.203 402.897C555.528 401.728 555.757 400.432 556.879 399.784C558.064 399.1 559.069 399.58 559.663 400.609L562.399 405.348L563.646 404.628L561.027 400.092C560.379 398.97 560.605 397.633 561.712 396.994C562.881 396.319 563.885 396.799 564.479 397.828L567.215 402.567L568.462 401.847L565.645 396.968C564.565 395.097 562.81 394.864 561.453 395.647C560.393 396.259 559.728 397.267 559.81 398.633C558.869 397.867 557.665 397.834 556.637 398.428C555.67 398.986 555.054 400.007 555.083 401.029L554.471 399.969ZM569.122 398.827C569.779 399.965 571.311 400.494 572.854 399.603C574.195 398.829 574.582 397.628 574.559 396.831C574.892 397.408 575.17 397.746 575.3 397.899L576.516 397.197C576.334 396.991 576.062 396.628 575.702 396.004L573.524 392.232C572.687 390.782 571.097 390.079 568.977 391.303C567.371 392.23 566.682 393.917 567.345 395.425L568.692 395.022C568.252 394.008 568.529 392.975 569.62 392.345C570.789 391.67 571.719 391.985 572.205 392.827C572.394 393.155 572.405 393.46 571.904 393.853L570.064 395.311C568.863 396.254 568.366 397.517 569.122 398.827ZM572.398 398.453C571.541 398.948 570.684 398.652 570.333 398.044C569.91 397.312 570.191 396.609 570.845 396.086L573.069 394.324L573.357 394.823C574.275 396.413 573.692 397.706 572.398 398.453ZM574.84 385.05L573.671 385.725L574.382 386.956C574.787 387.658 574.712 388.283 573.948 388.724L573.465 389.003L574.113 390.126L575.609 389.262L578.093 393.564C578.876 394.92 580.112 395.225 581.344 394.514C581.827 394.235 582.131 393.935 582.245 393.807L581.633 392.747C581.526 392.85 581.272 393.059 581.054 393.185C580.259 393.644 579.691 393.452 579.241 392.673L576.856 388.542L578.618 387.525L577.97 386.402L576.208 387.419L574.84 385.05ZM585.241 392.16L580.93 384.693L579.682 385.413L583.993 392.88L585.241 392.16ZM577.67 382.647C577.967 383.162 578.631 383.34 579.145 383.043C579.659 382.746 579.837 382.082 579.54 381.567C579.243 381.053 578.579 380.875 578.065 381.172C577.551 381.469 577.373 382.133 577.67 382.647ZM586.467 381.205C584.316 382.447 583.68 385.018 585.003 387.309C586.335 389.616 588.879 390.351 591.03 389.109C593.181 387.867 593.817 385.296 592.485 382.989C591.162 380.698 588.618 379.963 586.467 381.205ZM587.115 382.328C588.456 381.554 590.194 381.901 591.238 383.709C592.291 385.533 591.723 387.212 590.382 387.986C589.042 388.76 587.303 388.413 586.25 386.589C585.206 384.781 585.775 383.102 587.115 382.328ZM595.277 380.505C594.602 379.335 594.696 377.951 595.896 377.258C597.253 376.475 598.255 377.06 598.885 378.151L601.54 382.75L602.788 382.03L600.025 377.244C599.089 375.623 597.478 374.848 595.685 375.883C594.703 376.45 594.1 377.422 594.121 378.574L593.473 377.452L592.257 378.154L596.568 385.621L597.815 384.901L595.277 380.505ZM603.45 379.007C604.107 380.145 605.639 380.674 607.182 379.783C608.523 379.009 608.91 377.809 608.887 377.012C609.22 377.588 609.498 377.927 609.628 378.08L610.844 377.378C610.662 377.171 610.391 376.809 610.031 376.185L607.853 372.413C607.016 370.963 605.425 370.26 603.305 371.484C601.699 372.411 601.01 374.097 601.673 375.606L603.02 375.203C602.58 374.189 602.857 373.156 603.948 372.526C605.117 371.851 606.047 372.166 606.533 373.008C606.722 373.335 606.733 373.641 606.232 374.034L604.392 375.491C603.191 376.434 602.694 377.698 603.45 379.007ZM606.726 378.633C605.869 379.128 605.012 378.833 604.661 378.225C604.238 377.492 604.519 376.79 605.173 376.267L607.397 374.504L607.685 375.003C608.603 376.593 608.02 377.886 606.726 378.633ZM614.347 375.356L607.84 364.085L606.593 364.805L613.1 376.076L614.347 375.356Z" fill="#101820"/>
<path d="M162.152 211.658C161.133 210.542 159.283 209.677 156.898 211.054C154.903 212.206 154.168 214.605 155.167 216.335C156.103 217.956 157.786 218.315 159.511 217.776L161.339 217.199C162.662 216.789 163.69 217.13 164.212 218.034C164.824 219.094 164.453 220.431 162.863 221.349C161.117 222.357 159.482 221.721 158.601 220.484L157.595 221.585C158.733 223.089 160.99 224.01 163.547 222.534C165.854 221.202 166.44 218.868 165.459 217.169C164.559 215.61 162.86 215.115 160.857 215.752L159.029 216.329C157.89 216.696 156.944 216.39 156.431 215.501C155.783 214.379 156.31 212.952 157.589 212.214C159.188 211.312 160.514 211.918 161.226 212.754L162.152 211.658ZM168.562 210.597C169.902 209.823 171.041 210.392 171.703 211.07L172.546 209.938C171.551 208.934 169.831 208.368 167.914 209.475C165.809 210.69 165.155 213.229 166.496 215.551C167.81 217.827 170.341 218.611 172.492 217.369C174.41 216.262 174.752 214.443 174.472 213.129L173.102 213.276C173.279 214.088 173.263 215.428 171.844 216.247C170.519 217.012 168.778 216.624 167.743 214.831C166.699 213.023 167.252 211.353 168.562 210.597ZM175.794 212.532C176.451 213.67 177.983 214.199 179.526 213.308C180.867 212.534 181.255 211.333 181.231 210.536C181.564 211.113 181.842 211.451 181.972 211.605L183.188 210.903C183.007 210.696 182.735 210.333 182.375 209.71L180.197 205.937C179.36 204.487 177.769 203.784 175.649 205.008C174.044 205.935 173.355 207.622 174.018 209.131L175.364 208.727C174.925 207.713 175.201 206.681 176.292 206.051C177.462 205.376 178.392 205.691 178.878 206.532C179.067 206.86 179.077 207.166 178.576 207.559L176.737 209.016C175.535 209.959 175.038 211.222 175.794 212.532ZM179.07 212.158C178.213 212.653 177.356 212.357 177.005 211.75C176.582 211.017 176.863 210.315 177.517 209.791L179.742 208.029L180.03 208.528C180.948 210.118 180.364 211.411 179.07 212.158ZM184.153 204.484C183.478 203.315 183.573 201.93 184.773 201.237C186.129 200.454 187.132 201.039 187.762 202.131L190.417 206.729L191.664 206.009L188.901 201.223C187.965 199.602 186.354 198.828 184.561 199.863C183.579 200.43 182.976 201.402 182.997 202.554L182.349 201.431L181.133 202.133L185.444 209.6L186.691 208.88L184.153 204.484ZM204.099 198.83L205.627 197.948L200.219 194.772C201.734 193.544 202.051 191.719 201.124 190.113C200.089 188.321 197.968 187.634 195.926 188.813L191.904 191.135L198.285 202.187L199.594 201.431L196.921 196.801L198.839 195.694L204.099 198.83ZM196.246 195.632L193.888 191.548L196.398 190.099C197.738 189.325 199.095 189.622 199.815 190.869C200.526 192.101 200.096 193.409 198.756 194.183L196.246 195.632ZM205.465 192.097C204.904 190.945 205.192 189.428 206.486 188.681C207.904 187.862 209.208 188.356 209.923 189.523L205.465 192.097ZM211.22 191.372C211.436 192.432 211.165 193.545 209.902 194.274C208.561 195.048 206.901 194.656 206.082 193.237L206.046 193.175L211.798 189.854C211.75 189.736 211.667 189.555 211.577 189.399C210.263 187.124 208.091 186.278 205.831 187.583C203.945 188.672 203.201 191.201 204.56 193.554C206.009 196.064 208.555 196.548 210.55 195.396C212.28 194.397 212.846 192.678 212.52 191.141L211.22 191.372ZM218.634 194.387L216.258 190.272C217.053 190.748 218.298 190.923 219.576 190.185C221.727 188.943 222.006 186.475 220.719 184.246C219.432 182.017 217.242 180.995 215.044 182.264C213.719 183.029 213.251 184.234 213.302 185.223L212.582 183.976L211.366 184.678L217.387 195.107L218.634 194.387ZM218.741 189.171C217.307 189.999 215.687 189.354 214.733 187.702C213.779 186.049 214.024 184.349 215.474 183.512C216.923 182.675 218.518 183.313 219.472 184.966C220.426 186.618 220.175 188.343 218.741 189.171ZM223.601 177.324C221.45 178.566 220.814 181.136 222.137 183.427C223.469 185.734 226.013 186.469 228.164 185.227C230.315 183.985 230.951 181.414 229.619 179.107C228.296 176.816 225.752 176.082 223.601 177.324ZM224.249 178.446C225.59 177.672 227.328 178.019 228.372 179.827C229.425 181.651 228.857 183.33 227.516 184.104C226.175 184.878 224.437 184.531 223.384 182.707C222.34 180.899 222.908 179.22 224.249 178.446ZM233.37 171.912C233.243 171.944 233.006 172.039 232.804 172.156C231.978 172.633 231.234 173.54 231.38 174.911L230.606 173.57L229.391 174.272L233.702 181.739L234.949 181.019L232.717 177.153C231.745 175.469 232.188 174.257 233.435 173.537C233.653 173.411 233.896 173.292 234.135 173.237L233.37 171.912ZM235.311 167.694L234.142 168.369L234.853 169.601C235.258 170.302 235.183 170.928 234.419 171.369L233.936 171.648L234.584 172.77L236.08 171.906L238.564 176.209C239.347 177.565 240.583 177.87 241.815 177.159C242.298 176.88 242.602 176.579 242.716 176.451L242.104 175.391C241.997 175.495 241.743 175.703 241.525 175.829C240.73 176.288 240.162 176.097 239.712 175.317L237.327 171.186L239.089 170.169L238.441 169.047L236.679 170.064L235.311 167.694ZM250.598 160.594C249.58 159.477 247.729 158.613 245.344 159.99C243.349 161.142 242.614 163.54 243.613 165.271C244.549 166.892 246.232 167.251 247.957 166.712L249.786 166.134C251.108 165.724 252.136 166.066 252.658 166.97C253.27 168.03 252.899 169.367 251.309 170.285C249.563 171.293 247.928 170.657 247.047 169.419L246.041 170.52C247.18 172.024 249.436 172.945 251.993 171.469C254.3 170.137 254.886 167.804 253.905 166.105C253.005 164.546 251.306 164.051 249.304 164.687L247.475 165.265C246.336 165.631 245.39 165.325 244.877 164.437C244.229 163.314 244.757 161.888 246.035 161.15C247.634 160.247 248.961 160.853 249.672 161.689L250.598 160.594ZM261.867 164.126L261.903 164.189C262.119 164.563 262.385 164.95 262.53 165.095L263.731 164.402C263.513 164.132 263.16 163.629 262.827 163.053L259.326 156.989L258.079 157.709L260.68 162.214C261.364 163.398 261.198 164.658 259.966 165.369C258.641 166.134 257.56 165.449 256.93 164.358L254.338 159.869L253.091 160.589L255.8 165.281C256.754 166.933 258.525 167.698 260.334 166.654C261.316 166.087 261.95 165.097 261.867 164.126ZM262.971 154.884L261.755 155.586L266.066 163.053L267.313 162.333L264.703 157.813C264.028 156.643 264.257 155.348 265.379 154.7C266.564 154.016 267.568 154.496 268.162 155.524L270.898 160.263L272.145 159.543L269.526 155.007C268.878 153.885 269.105 152.549 270.211 151.91C271.381 151.235 272.385 151.715 272.979 152.743L275.715 157.482L276.962 156.762L274.145 151.883C273.065 150.012 271.309 149.779 269.953 150.562C268.893 151.174 268.228 152.182 268.31 153.548C267.369 152.782 266.165 152.749 265.136 153.343C264.17 153.901 263.554 154.922 263.583 155.944L262.971 154.884ZM276.2 147.247L274.984 147.949L279.295 155.416L280.542 154.696L277.932 150.175C277.257 149.006 277.485 147.71 278.608 147.062C279.793 146.378 280.797 146.858 281.391 147.887L284.127 152.626L285.374 151.906L282.755 147.369C282.107 146.247 282.333 144.911 283.44 144.272C284.609 143.597 285.614 144.077 286.208 145.106L288.944 149.845L290.191 149.125L287.374 144.245C286.294 142.375 284.538 142.141 283.182 142.924C282.122 143.536 281.457 144.544 281.539 145.91C280.598 145.144 279.394 145.111 278.365 145.705C277.399 146.263 276.783 147.284 276.812 148.307L276.2 147.247ZM290.851 146.104C291.508 147.242 293.039 147.771 294.583 146.88C295.923 146.106 296.311 144.905 296.287 144.109C296.62 144.685 296.899 145.023 297.029 145.177L298.245 144.475C298.063 144.268 297.791 143.905 297.431 143.282L295.253 139.509C294.416 138.06 292.826 137.357 290.705 138.581C289.1 139.508 288.411 141.194 289.074 142.703L290.421 142.299C289.981 141.285 290.257 140.253 291.349 139.623C292.518 138.948 293.448 139.263 293.934 140.105C294.123 140.432 294.133 140.738 293.633 141.131L291.793 142.588C290.591 143.531 290.095 144.795 290.851 146.104ZM294.126 145.73C293.269 146.225 292.413 145.93 292.062 145.322C291.639 144.589 291.919 143.887 292.573 143.364L294.798 141.601L295.086 142.1C296.004 143.69 295.42 144.983 294.126 145.73ZM300.169 133.346C300.042 133.378 299.805 133.472 299.603 133.589C298.777 134.066 298.033 134.974 298.179 136.344L297.405 135.004L296.19 135.706L300.501 143.172L301.748 142.452L299.516 138.586C298.544 136.903 298.987 135.691 300.234 134.971C300.452 134.845 300.695 134.725 300.934 134.671L300.169 133.346ZM309.593 141.872L308.357 128.68L307.001 129.463L307.729 136.089L302.215 132.226L300.781 133.054L307.791 137.779L308.205 142.673L309.593 141.872Z" fill="#101820"/>
<rect x="373.744" y="89.3372" width="79" height="8" transform="rotate(-30 373.744 89.3372)" fill="white"/>
<rect x="154" y="136.457" width="392" height="470" transform="rotate(-15 154 136.457)" fill="white"/>
<rect x="154.612" y="136.811" width="391" height="469" transform="rotate(-15 154.612 136.811)" stroke="#101820" stroke-opacity="0.2"/>
<rect opacity="0.1" x="166.248" y="143.528" width="372" height="80" transform="rotate(-15 166.248 143.528)" fill="#7A2582"/>
<g opacity="0.1">
<rect x="227.906" y="261.593" width="177" height="8" transform="rotate(-15 227.906 261.593)" fill="#5D40BD"/>
<rect x="231.271" y="274.15" width="144.935" height="8" transform="rotate(-15 231.271 274.15)" fill="#5D40BD"/>
<rect x="234.637" y="286.707" width="50.0217" height="8" transform="rotate(-15 234.637 286.707)" fill="#5D40BD"/>
<rect x="238.002" y="299.264" width="94.913" height="8" transform="rotate(-15 238.002 299.264)" fill="#5D40BD"/>
</g>
<g opacity="0.1">
<rect x="248.094" y="336.935" width="177" height="8" transform="rotate(-15 248.094 336.935)" fill="#5D40BD"/>
<rect x="251.459" y="349.492" width="144.935" height="8" transform="rotate(-15 251.459 349.492)" fill="#5D40BD"/>
<rect x="254.824" y="362.049" width="50.0217" height="8" transform="rotate(-15 254.824 362.049)" fill="#5D40BD"/>
<rect x="258.189" y="374.606" width="94.913" height="8" transform="rotate(-15 258.189 374.606)" fill="#5D40BD"/>
</g>
<g opacity="0.1">
<rect x="268.281" y="412.277" width="177" height="8" transform="rotate(-15 268.281 412.277)" fill="#5D40BD"/>
<rect x="271.646" y="424.834" width="144.935" height="8" transform="rotate(-15 271.646 424.834)" fill="#5D40BD"/>
<rect x="275.012" y="437.391" width="128" height="8" transform="rotate(-15 275.012 437.391)" fill="#5D40BD"/>
<rect x="278.377" y="449.948" width="59" height="8" transform="rotate(-15 278.377 449.948)" fill="#5D40BD"/>
</g>
<g opacity="0.1">
<rect x="288.469" y="487.619" width="139" height="8" transform="rotate(-15 288.469 487.619)" fill="#5D40BD"/>
<rect x="291.834" y="500.176" width="101" height="8" transform="rotate(-15 291.834 500.176)" fill="#5D40BD"/>
<rect x="295.199" y="512.733" width="128" height="8" transform="rotate(-15 295.199 512.733)" fill="#5D40BD"/>
<rect x="298.564" y="525.291" width="79" height="8" transform="rotate(-15 298.564 525.291)" fill="#5D40BD"/>
</g>
<path d="M452.744 226.194L446.697 203.626L442.559 204.735C442.74 207.22 440.939 209.678 437.645 210.598L438.511 213.832L443.936 212.379L447.98 227.47L452.744 226.194ZM467.835 198.521C466.747 198.216 464.913 198.186 462.827 198.745C455.385 200.739 451.687 207.246 453.858 215.348C455.685 222.163 460.842 224.583 465.78 223.26C470.753 221.927 473.623 217.618 472.384 212.993C471.135 208.333 467.188 206.26 462.564 207.499C459.921 208.207 458.378 209.962 457.879 211.438C457.264 207.056 459.797 203.992 463.623 202.967C465.048 202.585 466.472 202.613 467.558 202.77L467.835 198.521ZM459.685 216.507C459.061 214.177 460.487 212.267 462.643 211.69C464.833 211.103 467.024 212.044 467.648 214.374C468.272 216.703 466.855 218.648 464.665 219.235C462.578 219.794 460.3 218.802 459.685 216.507ZM451.425 252.429L448.122 240.102L446.661 240.493L449.964 252.82L451.425 252.429ZM460.032 248.837C460.176 249.376 460.354 249.832 460.44 250.013L461.796 249.65C461.715 249.486 461.514 248.943 461.29 248.109L458.341 237.103L456.95 237.476L458.446 243.057C457.981 242.436 456.926 241.768 455.327 242.197C452.997 242.821 451.998 245.213 452.645 247.63C453.307 250.099 455.289 251.655 457.689 251.012C459.132 250.625 459.808 249.531 459.971 248.611L460.032 248.837ZM457.475 249.727C455.91 250.146 454.53 249.1 454.036 247.257C453.543 245.414 454.202 243.84 455.784 243.416C457.366 242.992 458.741 244.021 459.235 245.864C459.729 247.707 459.04 249.308 457.475 249.727ZM463.977 243.736C463.733 242.478 464.404 241.087 465.847 240.701C467.429 240.277 468.561 241.092 468.949 242.404L463.977 243.736ZM469.723 244.526C469.658 245.605 469.108 246.61 467.699 246.988C466.204 247.388 464.701 246.58 464.278 244.997L464.259 244.928L470.675 243.209C470.659 243.082 470.625 242.886 470.579 242.713C469.899 240.174 468.02 238.795 465.499 239.471C463.395 240.035 462.023 242.285 462.726 244.91C463.476 247.709 465.809 248.836 468.035 248.239C469.965 247.722 470.956 246.208 471.039 244.639L469.723 244.526ZM473.906 241.15C473.557 239.846 474.006 238.533 475.345 238.174C476.858 237.769 477.675 238.594 478.001 239.811L479.375 244.94L480.766 244.567L479.336 239.229C478.852 237.421 477.496 236.256 475.496 236.792C474.401 237.086 473.567 237.868 473.289 238.986L472.954 237.734L471.597 238.098L473.829 246.426L475.22 246.053L473.906 241.15ZM482.364 232.38L481.06 232.73L481.428 234.103C481.637 234.886 481.403 235.47 480.551 235.699L480.012 235.843L480.347 237.095L482.016 236.648L483.302 241.446C483.707 242.959 484.822 243.573 486.196 243.205C486.735 243.061 487.107 242.85 487.249 242.755L486.933 241.573C486.803 241.645 486.504 241.781 486.26 241.846C485.374 242.084 484.875 241.752 484.642 240.883L483.407 236.275L485.372 235.749L485.036 234.497L483.072 235.023L482.364 232.38ZM490.569 241.94L488.338 233.612L486.947 233.985L489.178 242.313L490.569 241.94ZM485.718 230.792C485.872 231.366 486.467 231.709 487.041 231.556C487.615 231.402 487.959 230.807 487.805 230.233C487.651 229.659 487.056 229.316 486.482 229.469C485.908 229.623 485.565 230.218 485.718 230.792ZM500.729 239.218L498.497 230.89L493.072 232.344L492.667 230.831C492.346 229.631 493.013 229.061 493.691 228.879C494.091 228.772 494.335 228.781 494.471 228.801L494.15 227.601C494.009 227.564 493.651 227.548 493.147 227.683C491.669 228.079 490.778 229.343 491.267 231.169L491.682 232.716L490.047 233.154L490.383 234.406L492.017 233.968L493.913 241.044L495.304 240.672L493.408 233.595L497.442 232.515L499.338 239.591L500.729 239.218ZM495.878 228.07C496.032 228.644 496.627 228.987 497.201 228.833C497.774 228.68 498.118 228.084 497.964 227.511C497.811 226.937 497.215 226.593 496.642 226.747C496.068 226.901 495.724 227.496 495.878 228.07ZM502.995 233.281C502.751 232.024 503.422 230.633 504.865 230.246C506.447 229.822 507.579 230.637 507.968 231.949L502.995 233.281ZM508.741 234.071C508.676 235.151 508.126 236.155 506.717 236.533C505.222 236.933 503.72 236.125 503.296 234.542L503.277 234.473L509.693 232.754C509.677 232.627 509.644 232.432 509.597 232.258C508.917 229.719 507.038 228.341 504.517 229.016C502.413 229.58 501.041 231.83 501.744 234.455C502.494 237.254 504.827 238.381 507.053 237.785C508.983 237.267 509.975 235.753 510.057 234.184L508.741 234.071ZM518.559 233.155C518.703 233.694 518.881 234.149 518.967 234.331L520.323 233.968C520.242 233.803 520.041 233.261 519.817 232.426L516.868 221.421L515.477 221.793L516.973 227.374C516.508 226.753 515.453 226.086 513.854 226.514C511.524 227.139 510.525 229.531 511.173 231.947C511.834 234.416 513.816 235.972 516.216 235.329C517.659 234.943 518.335 233.848 518.498 232.929L518.559 233.155ZM516.002 234.045C514.437 234.464 513.057 233.418 512.564 231.575C512.07 229.732 512.729 228.157 514.311 227.733C515.893 227.31 517.268 228.339 517.762 230.182C518.256 232.025 517.567 233.626 516.002 234.045Z" fill="#101820"/>
<path d="M464.547 288.602C463.913 286.237 463.721 284.127 464.227 282.538C464.624 281.239 465.506 280.22 467.14 279.782C468.81 279.334 470.014 279.794 471.007 280.721C472.275 281.835 473.163 283.758 473.797 286.123C474.43 288.488 474.623 290.598 474.082 292.196C473.685 293.495 472.872 294.496 471.203 294.943C469.569 295.381 468.295 294.939 467.301 294.013C466.069 292.89 465.18 290.966 464.547 288.602ZM459.748 289.887C460.521 292.774 461.728 295.469 463.883 297.389C465.974 299.214 468.828 300.126 472.34 299.185C475.852 298.244 477.867 296.027 478.731 293.41C479.637 290.671 479.369 287.723 478.595 284.837C477.822 281.951 476.58 279.265 474.426 277.345C472.369 275.511 469.516 274.598 466.004 275.539C462.492 276.48 460.477 278.697 459.578 281.324C458.672 284.063 458.975 287.001 459.748 289.887ZM474.675 324.106C477.492 323.351 479.014 321.173 479.02 318.693L477.608 318.568C477.579 320.477 476.507 322.18 474.316 322.767C471.969 323.396 469.248 322.28 468.349 318.925C467.454 315.587 469.253 313.26 471.6 312.631C473.704 312.067 475.463 312.788 476.449 314.593L477.68 313.76C476.438 311.558 474.041 310.542 471.242 311.292C468.199 312.107 465.784 315.195 466.888 319.316C467.992 323.437 471.546 324.944 474.675 324.106ZM483.303 312.346C480.904 312.989 479.624 315.307 480.309 317.863C480.999 320.436 483.266 321.804 485.665 321.161C488.065 320.518 489.344 318.2 488.655 315.627C487.97 313.071 485.703 311.703 483.303 312.346ZM483.639 313.598C485.134 313.197 486.723 313.983 487.264 316C487.809 318.034 486.825 319.509 485.33 319.909C483.834 320.31 482.245 319.525 481.7 317.49C481.16 315.473 482.143 313.999 483.639 313.598ZM491.994 313.949C491.645 312.645 492.094 311.332 493.433 310.974C494.945 310.568 495.763 311.393 496.089 312.61L497.463 317.739L498.854 317.366L497.424 312.029C496.939 310.22 495.584 309.056 493.584 309.591C492.489 309.885 491.655 310.667 491.377 311.785L491.041 310.534L489.685 310.897L491.917 319.225L493.308 318.852L491.994 313.949ZM508.901 314.674L506.669 306.346L501.244 307.8L500.839 306.287C500.518 305.087 501.185 304.517 501.863 304.336C502.263 304.228 502.507 304.237 502.643 304.257L502.322 303.057C502.181 303.02 501.823 303.005 501.319 303.14C499.841 303.536 498.95 304.799 499.439 306.625L499.853 308.172L498.219 308.61L498.554 309.862L500.189 309.424L502.085 316.501L503.476 316.128L501.58 309.051L505.613 307.971L507.51 315.047L508.901 314.674ZM504.05 303.526C504.204 304.1 504.799 304.443 505.373 304.29C505.946 304.136 506.29 303.541 506.136 302.967C505.982 302.393 505.387 302.049 504.813 302.203C504.24 302.357 503.896 302.952 504.05 303.526ZM513.835 304.37C513.704 304.368 513.452 304.398 513.226 304.459C512.304 304.706 511.351 305.39 511.138 306.751L510.737 305.256L509.381 305.619L511.613 313.948L513.004 313.575L511.848 309.263C511.345 307.385 512.087 306.329 513.478 305.957C513.721 305.891 513.987 305.839 514.231 305.848L513.835 304.37ZM516.85 303.618L515.494 303.982L517.725 312.31L519.116 311.937L517.765 306.895C517.416 305.591 517.972 304.398 519.224 304.063C520.545 303.709 521.391 304.433 521.699 305.58L523.115 310.866L524.506 310.493L523.15 305.433C522.815 304.182 523.379 302.949 524.614 302.619C525.918 302.269 526.764 302.993 527.071 304.141L528.487 309.426L529.878 309.053L528.42 303.611C527.861 301.525 526.225 300.845 524.713 301.25C523.53 301.567 522.627 302.368 522.353 303.709C521.642 302.725 520.488 302.382 519.34 302.69C518.262 302.979 517.403 303.805 517.166 304.801L516.85 303.618ZM532.034 303.146C531.79 301.888 532.461 300.497 533.904 300.111C535.487 299.687 536.618 300.502 537.007 301.814L532.034 303.146ZM537.78 303.936C537.716 305.015 537.165 306.02 535.757 306.397C534.261 306.798 532.759 305.989 532.335 304.407L532.316 304.338L538.732 302.619C538.717 302.492 538.683 302.296 538.636 302.122C537.956 299.584 536.077 298.205 533.556 298.881C531.452 299.445 530.08 301.694 530.783 304.32C531.534 307.119 533.867 308.246 536.092 307.649C538.022 307.132 539.014 305.618 539.097 304.049L537.78 303.936ZM547.598 303.02C547.743 303.559 547.921 304.014 548.007 304.196L549.363 303.833C549.281 303.668 549.08 303.126 548.856 302.291L545.907 291.285L544.517 291.658L546.012 297.239C545.547 296.618 544.493 295.95 542.893 296.379C540.563 297.003 539.564 299.395 540.212 301.812C540.873 304.281 542.856 305.837 545.255 305.194C546.698 304.807 547.374 303.713 547.538 302.794L547.598 303.02ZM545.041 303.91C543.477 304.329 542.097 303.282 541.603 301.439C541.109 299.596 541.768 298.022 543.35 297.598C544.932 297.174 546.308 298.203 546.801 300.046C547.295 301.889 546.606 303.49 545.041 303.91Z" fill="#101820"/>
<path d="M483.959 361.046C483.325 358.682 483.133 356.571 483.639 354.982C484.036 353.683 484.918 352.664 486.553 352.226C488.222 351.779 489.426 352.239 490.419 353.165C491.687 354.279 492.575 356.203 493.209 358.568C493.842 360.932 494.035 363.042 493.494 364.641C493.097 365.94 492.284 366.94 490.615 367.387C488.981 367.825 487.707 367.384 486.713 366.458C485.481 365.334 484.593 363.411 483.959 361.046ZM479.16 362.332C479.934 365.218 481.14 367.914 483.295 369.833C485.386 371.658 488.24 372.571 491.752 371.63C495.264 370.689 497.279 368.472 498.143 365.855C499.049 363.115 498.781 360.168 498.007 357.282C497.234 354.396 495.992 351.709 493.838 349.79C491.781 347.955 488.928 347.043 485.416 347.984C481.904 348.925 479.889 351.142 478.99 353.768C478.084 356.508 478.387 359.446 479.16 362.332ZM494.087 396.55C496.904 395.796 498.426 393.618 498.432 391.137L497.02 391.013C496.991 392.921 495.919 394.625 493.729 395.212C491.381 395.841 488.66 394.725 487.761 391.369C486.866 388.031 488.665 385.704 491.013 385.075C493.116 384.512 494.875 385.233 495.861 387.037L497.092 386.204C495.85 384.003 493.453 382.986 490.654 383.736C487.611 384.552 485.196 387.64 486.3 391.761C487.404 395.881 490.958 397.389 494.087 396.55ZM503.636 384.749C503.505 384.747 503.252 384.777 503.026 384.838C502.105 385.085 501.151 385.769 500.938 387.13L500.538 385.635L499.181 385.998L501.413 394.327L502.804 393.954L501.649 389.642C501.145 387.764 501.887 386.708 503.278 386.336C503.522 386.27 503.787 386.218 504.032 386.227L503.636 384.749ZM508.916 392.316L506.685 383.988L505.294 384.361L507.526 392.689L508.916 392.316ZM504.066 381.168C504.219 381.741 504.815 382.085 505.388 381.931C505.962 381.778 506.306 381.182 506.152 380.609C505.998 380.035 505.403 379.691 504.829 379.845C504.256 379.999 503.912 380.594 504.066 381.168ZM510.712 380.076L509.408 380.426L509.776 381.799C509.985 382.582 509.751 383.166 508.899 383.395L508.36 383.539L508.695 384.791L510.364 384.344L511.65 389.142C512.055 390.655 513.17 391.269 514.544 390.901C515.083 390.757 515.455 390.546 515.597 390.451L515.281 389.269C515.151 389.341 514.852 389.477 514.608 389.542C513.722 389.78 513.223 389.448 512.99 388.578L511.755 383.971L513.72 383.445L513.384 382.193L511.42 382.719L510.712 380.076ZM518.917 389.636L516.686 381.308L515.295 381.681L517.526 390.009L518.917 389.636ZM514.066 378.488C514.22 379.062 514.815 379.405 515.389 379.252C515.963 379.098 516.307 378.503 516.153 377.929C515.999 377.355 515.404 377.012 514.83 377.165C514.256 377.319 513.913 377.914 514.066 378.488ZM523.221 380.638C524.716 380.237 525.669 381.081 526.133 381.908L527.24 381.033C526.538 379.805 525.024 378.813 522.885 379.386C520.538 380.015 519.249 382.298 519.943 384.889C520.624 387.428 522.865 388.839 525.265 388.197C527.403 387.623 528.205 385.955 528.274 384.614L526.912 384.401C526.874 385.231 526.511 386.521 524.929 386.945C523.451 387.341 521.87 386.516 521.334 384.516C520.794 382.5 521.76 381.029 523.221 380.638ZM529.706 384.379C530.046 385.648 531.389 386.556 533.11 386.094C534.605 385.694 535.29 384.634 535.474 383.858C535.646 384.502 535.828 384.9 535.914 385.082L537.27 384.719C537.148 384.472 536.979 384.051 536.793 383.356L535.665 379.148C535.232 377.531 533.878 376.441 531.513 377.074C529.722 377.554 528.62 379.005 528.87 380.634L530.275 380.593C530.113 379.499 530.648 378.573 531.865 378.247C533.169 377.898 533.986 378.443 534.237 379.382C534.335 379.747 534.266 380.045 533.68 380.295L531.526 381.226C530.122 381.826 529.315 382.918 529.706 384.379ZM532.967 384.865C532.011 385.122 531.26 384.615 531.078 383.937C530.859 383.119 531.312 382.514 532.079 382.178L534.684 381.051L534.833 381.607C535.309 383.381 534.41 384.479 532.967 384.865ZM541.177 383.672L537.809 371.101L536.418 371.474L539.786 384.045L541.177 383.672Z" fill="#101820"/>
<path d="M512.86 419.394C511.772 419.089 509.938 419.059 507.851 419.618C500.41 421.612 496.712 428.118 498.883 436.221C500.709 443.036 505.867 445.456 510.805 444.133C515.777 442.8 518.648 438.49 517.409 433.866C516.16 429.206 512.213 427.133 507.588 428.372C504.945 429.08 503.403 430.835 502.904 432.311C502.289 427.929 504.822 424.864 508.647 423.84C510.073 423.458 511.497 423.486 512.582 423.642L512.86 419.394ZM504.709 437.38C504.085 435.05 505.511 433.14 507.667 432.562C509.858 431.975 512.048 432.917 512.673 435.246C513.297 437.576 511.88 439.521 509.689 440.108C507.603 440.667 505.324 439.675 504.709 437.38ZM509.659 469.762L506.356 457.435L504.896 457.827L508.199 470.154L509.659 469.762ZM512.801 463.665C512.452 462.361 512.901 461.048 514.24 460.69C515.753 460.284 516.57 461.109 516.896 462.326L518.27 467.455L519.661 467.082L518.231 461.745C517.747 459.936 516.391 458.772 514.392 459.307C513.296 459.601 512.462 460.383 512.184 461.501L511.849 460.25L510.493 460.613L512.724 468.941L514.115 468.568L512.801 463.665ZM524.543 458.19L524.208 456.938L522.052 457.516L521.646 456.003C521.325 454.803 521.992 454.233 522.67 454.052C523.07 453.944 523.315 453.953 523.45 453.973L523.129 452.773C522.989 452.736 522.63 452.72 522.126 452.856C520.648 453.252 519.757 454.515 520.246 456.341L520.661 457.888L519.026 458.326L519.362 459.578L520.996 459.14L522.892 466.217L524.283 465.844L522.387 458.767L524.543 458.19ZM529.24 455.329C526.84 455.972 525.561 458.29 526.246 460.846C526.935 463.419 529.202 464.787 531.602 464.144C534.001 463.501 535.281 461.183 534.591 458.609C533.906 456.054 531.639 454.686 529.24 455.329ZM529.575 456.581C531.07 456.18 532.66 456.965 533.2 458.982C533.745 461.016 532.762 462.491 531.266 462.892C529.771 463.293 528.182 462.507 527.637 460.473C527.096 458.456 528.08 456.981 529.575 456.581ZM540.076 452.63C539.945 452.628 539.692 452.658 539.466 452.719C538.545 452.966 537.591 453.65 537.379 455.011L536.978 453.516L535.622 453.88L537.853 462.208L539.244 461.835L538.089 457.523C537.586 455.645 538.328 454.589 539.719 454.217C539.962 454.151 540.227 454.099 540.472 454.108L540.076 452.63ZM543.09 451.878L541.734 452.242L543.966 460.57L545.357 460.197L544.006 455.155C543.656 453.851 544.213 452.658 545.464 452.323C546.786 451.969 547.632 452.693 547.939 453.84L549.356 459.126L550.747 458.753L549.391 453.694C549.055 452.442 549.62 451.21 550.854 450.879C552.158 450.529 553.004 451.253 553.312 452.401L554.728 457.686L556.119 457.313L554.661 451.871C554.102 449.785 552.466 449.105 550.953 449.511C549.771 449.827 548.868 450.628 548.593 451.969C547.883 450.986 546.729 450.643 545.581 450.95C544.503 451.239 543.644 452.066 543.407 453.061L543.09 451.878ZM557.538 454.567C557.878 455.836 559.221 456.743 560.942 456.282C562.437 455.881 563.122 454.822 563.306 454.046C563.478 454.689 563.659 455.088 563.745 455.27L565.102 454.907C564.98 454.66 564.811 454.239 564.625 453.544L563.497 449.336C563.064 447.719 561.709 446.629 559.345 447.262C557.554 447.742 556.452 449.193 556.702 450.821L558.107 450.78C557.945 449.687 558.479 448.761 559.696 448.435C561 448.086 561.817 448.631 562.069 449.57C562.167 449.935 562.098 450.233 561.512 450.483L559.358 451.414C557.953 452.014 557.147 453.106 557.538 454.567ZM560.799 455.053C559.843 455.309 559.092 454.803 558.91 454.124C558.691 453.307 559.144 452.701 559.911 452.365L562.516 451.239L562.665 451.795C563.14 453.569 562.242 454.667 560.799 455.053ZM566.627 442.739L565.323 443.089L565.691 444.462C565.901 445.245 565.666 445.829 564.814 446.058L564.275 446.202L564.611 447.454L566.28 447.007L567.565 451.805C567.971 453.318 569.086 453.932 570.459 453.564C570.998 453.42 571.37 453.208 571.513 453.114L571.196 451.932C571.066 452.004 570.767 452.14 570.524 452.205C569.637 452.443 569.138 452.111 568.905 451.241L567.671 446.634L569.635 446.107L569.3 444.856L567.335 445.382L566.627 442.739ZM574.833 452.299L572.601 443.971L571.21 444.344L573.442 452.672L574.833 452.299ZM569.982 441.151C570.136 441.725 570.731 442.068 571.305 441.914C571.878 441.761 572.222 441.166 572.068 440.592C571.914 440.018 571.319 439.674 570.746 439.828C570.172 439.982 569.828 440.577 569.982 441.151ZM578.853 442.035C576.453 442.678 575.174 444.996 575.859 447.552C576.548 450.125 578.815 451.493 581.215 450.85C583.614 450.207 584.894 447.889 584.204 445.316C583.519 442.76 581.252 441.392 578.853 442.035ZM579.188 443.287C580.684 442.886 582.273 443.672 582.813 445.688C583.358 447.723 582.375 449.197 580.879 449.598C579.384 449.999 577.795 449.213 577.25 447.179C576.709 445.162 577.693 443.687 579.188 443.287ZM587.544 443.638C587.194 442.334 587.644 441.021 588.982 440.662C590.495 440.257 591.312 441.082 591.638 442.299L593.013 447.428L594.404 447.055L592.973 441.717C592.489 439.909 591.133 438.744 589.134 439.28C588.038 439.574 587.205 440.356 586.926 441.474L586.591 440.222L585.235 440.586L587.466 448.914L588.857 448.541L587.544 443.638ZM595.826 444.307C596.166 445.577 597.509 446.484 599.23 446.023C600.725 445.622 601.41 444.563 601.594 443.787C601.766 444.43 601.947 444.829 602.033 445.011L603.39 444.647C603.268 444.401 603.099 443.98 602.913 443.284L601.785 439.077C601.352 437.46 599.997 436.369 597.633 437.003C595.842 437.483 594.74 438.933 594.99 440.562L596.395 440.521C596.233 439.428 596.767 438.502 597.984 438.176C599.288 437.826 600.105 438.372 600.357 439.31C600.455 439.676 600.386 439.974 599.8 440.224L597.646 441.155C596.241 441.755 595.435 442.847 595.826 444.307ZM599.087 444.794C598.131 445.05 597.38 444.543 597.198 443.865C596.979 443.048 597.432 442.442 598.199 442.106L600.804 440.98L600.953 441.536C601.428 443.309 600.53 444.407 599.087 444.794ZM607.297 443.6L603.928 431.03L602.537 431.403L605.906 443.973L607.297 443.6Z" fill="#101820"/>
<path d="M212.88 168.444C212.185 167.102 210.621 165.788 207.961 166.501C205.736 167.097 204.405 169.224 204.922 171.154C205.406 172.962 206.939 173.744 208.745 173.67L210.661 173.585C212.044 173.532 212.949 174.128 213.219 175.136C213.536 176.318 212.831 177.513 211.058 177.989C209.111 178.51 207.696 177.473 207.166 176.05L205.909 176.853C206.619 178.6 208.561 180.074 211.412 179.31C213.985 178.62 215.155 176.518 214.647 174.623C214.181 172.884 212.668 171.967 210.57 172.063L208.654 172.148C207.459 172.207 206.625 171.667 206.359 170.676C206.024 169.424 206.902 168.182 208.328 167.8C210.106 167.342 211.231 168.271 211.701 169.263L212.88 168.444ZM219.346 169.078C220.841 168.677 221.794 169.521 222.258 170.348L223.365 169.473C222.663 168.245 221.149 167.253 219.01 167.826C216.663 168.455 215.374 170.738 216.068 173.329C216.749 175.868 218.99 177.279 221.39 176.636C223.528 176.063 224.33 174.395 224.399 173.054L223.037 172.841C222.999 173.671 222.636 174.961 221.054 175.385C219.576 175.781 217.995 174.956 217.459 172.956C216.919 170.94 217.885 169.469 219.346 169.078ZM225.831 172.819C226.171 174.088 227.514 174.996 229.235 174.534C230.73 174.134 231.415 173.074 231.599 172.298C231.771 172.942 231.953 173.34 232.039 173.522L233.395 173.159C233.273 172.912 233.104 172.491 232.918 171.796L231.79 167.588C231.357 165.971 230.003 164.881 227.638 165.514C225.847 165.994 224.745 167.445 224.995 169.074L226.4 169.033C226.238 167.939 226.773 167.013 227.99 166.687C229.294 166.338 230.111 166.883 230.362 167.822C230.46 168.187 230.391 168.485 229.805 168.735L227.651 169.666C226.247 170.266 225.44 171.358 225.831 172.819ZM229.092 173.305C228.136 173.562 227.385 173.055 227.203 172.377C226.984 171.559 227.437 170.954 228.204 170.618L230.809 169.491L230.958 170.047C231.434 171.821 230.535 172.919 229.092 173.305ZM235.988 167.209C235.639 165.905 236.088 164.592 237.427 164.233C238.94 163.828 239.757 164.652 240.083 165.869L241.457 170.999L242.848 170.626L241.418 165.288C240.933 163.48 239.578 162.315 237.578 162.851C236.483 163.144 235.649 163.927 235.371 165.045L235.036 163.793L233.679 164.156L235.911 172.485L237.302 172.112L235.988 167.209ZM256.718 166.909L258.422 166.453L254.02 161.986C255.801 161.192 256.58 159.511 256.1 157.72C255.565 155.721 253.693 154.508 251.415 155.118L246.929 156.32L250.233 168.647L251.693 168.256L250.309 163.092L252.448 162.519L256.718 166.909ZM249.96 161.788L248.739 157.233L251.539 156.483C253.034 156.082 254.267 156.721 254.64 158.111C255.008 159.485 254.254 160.637 252.759 161.038L249.96 161.788ZM259.779 160.76C259.536 159.502 260.206 158.111 261.65 157.724C263.232 157.3 264.363 158.115 264.752 159.427L259.779 160.76ZM265.526 161.549C265.461 162.629 264.91 163.634 263.502 164.011C262.007 164.412 260.504 163.603 260.08 162.021L260.061 161.951L266.477 160.232C266.462 160.106 266.428 159.91 266.381 159.736C265.701 157.197 263.822 155.819 261.301 156.494C259.198 157.058 257.825 159.308 258.529 161.933C259.279 164.732 261.612 165.859 263.837 165.263C265.767 164.746 266.759 163.231 266.842 161.662L265.526 161.549ZM271.908 166.38L270.678 161.79C271.322 162.456 272.479 162.947 273.904 162.565C276.304 161.922 277.212 159.61 276.546 157.124C275.88 154.638 274.029 153.084 271.577 153.741C270.099 154.137 269.335 155.18 269.129 156.149L268.756 154.758L267.4 155.121L270.517 166.753L271.908 166.38ZM273.36 161.369C271.761 161.798 270.363 160.756 269.87 158.913C269.376 157.07 270.052 155.491 271.669 155.058C273.286 154.625 274.661 155.654 275.155 157.497C275.649 159.34 274.96 160.941 273.36 161.369ZM281.121 151.184C278.722 151.826 277.442 154.145 278.127 156.7C278.817 159.274 281.084 160.641 283.483 159.999C285.883 159.356 287.162 157.037 286.473 154.464C285.788 151.908 283.521 150.541 281.121 151.184ZM281.457 152.435C282.952 152.035 284.541 152.82 285.082 154.837C285.627 156.871 284.643 158.346 283.148 158.747C281.653 159.147 280.063 158.362 279.518 156.328C278.978 154.311 279.962 152.836 281.457 152.435ZM291.958 148.485C291.827 148.483 291.574 148.513 291.348 148.574C290.426 148.821 289.473 149.505 289.26 150.866L288.86 149.371L287.503 149.734L289.735 158.063L291.126 157.69L289.97 153.378C289.467 151.5 290.209 150.444 291.6 150.071C291.844 150.006 292.109 149.954 292.354 149.963L291.958 148.485ZM294.925 144.913L293.621 145.263L293.989 146.636C294.198 147.419 293.964 148.003 293.112 148.232L292.573 148.376L292.908 149.628L294.577 149.181L295.863 153.979C296.268 155.492 297.383 156.106 298.757 155.738C299.296 155.594 299.668 155.382 299.81 155.288L299.494 154.106C299.364 154.178 299.065 154.314 298.821 154.379C297.935 154.617 297.436 154.285 297.203 153.415L295.968 148.808L297.933 148.282L297.597 147.03L295.633 147.556L294.925 144.913ZM311.529 142.011C310.834 140.669 309.27 139.355 306.61 140.068C304.385 140.664 303.054 142.791 303.571 144.721C304.055 146.529 305.588 147.311 307.394 147.237L309.31 147.152C310.693 147.099 311.598 147.695 311.868 148.703C312.185 149.885 311.48 151.081 309.707 151.556C307.76 152.077 306.345 151.04 305.815 149.617L304.557 150.42C305.268 152.167 307.21 153.641 310.061 152.877C312.634 152.188 313.804 150.085 313.296 148.19C312.83 146.451 311.317 145.534 309.219 145.63L307.303 145.715C306.108 145.774 305.274 145.234 305.008 144.243C304.673 142.991 305.551 141.749 306.977 141.367C308.755 140.909 309.88 141.838 310.35 142.83L311.529 142.011ZM321.499 148.34L321.518 148.41C321.63 148.827 321.786 149.27 321.889 149.447L323.228 149.088C323.087 148.772 322.877 148.195 322.704 147.551L320.892 140.788L319.501 141.161L320.848 146.185C321.202 147.507 320.715 148.681 319.341 149.049C317.863 149.445 316.996 148.503 316.67 147.286L315.328 142.279L313.937 142.651L315.34 147.885C315.834 149.728 317.347 150.925 319.364 150.384C320.459 150.091 321.328 149.299 321.499 148.34ZM324.957 139.699L323.601 140.062L325.833 148.39L327.224 148.018L325.872 142.975C325.523 141.671 326.079 140.479 327.331 140.143C328.653 139.789 329.499 140.513 329.806 141.66L331.222 146.946L332.613 146.573L331.258 141.514C330.922 140.262 331.487 139.03 332.721 138.699C334.025 138.35 334.871 139.073 335.179 140.221L336.595 145.506L337.986 145.134L336.528 139.692C335.969 137.605 334.333 136.926 332.82 137.331C331.638 137.648 330.735 138.449 330.46 139.789C329.749 138.806 328.595 138.463 327.448 138.77C326.37 139.059 325.511 139.886 325.274 140.881L324.957 139.699ZM339.712 135.745L338.356 136.108L340.587 144.437L341.978 144.064L340.627 139.022C340.278 137.718 340.834 136.525 342.086 136.19C343.407 135.836 344.254 136.559 344.561 137.707L345.977 142.992L347.368 142.62L346.013 137.56C345.677 136.308 346.242 135.076 347.476 134.746C348.78 134.396 349.626 135.12 349.934 136.267L351.35 141.553L352.741 141.18L351.283 135.738C350.724 133.652 349.088 132.972 347.575 133.377C346.393 133.694 345.489 134.495 345.215 135.836C344.504 134.852 343.35 134.509 342.203 134.817C341.125 135.106 340.265 135.932 340.029 136.927L339.712 135.745ZM354.16 138.433C354.5 139.703 355.842 140.61 357.564 140.149C359.059 139.748 359.744 138.689 359.927 137.913C360.1 138.556 360.281 138.955 360.367 139.137L361.723 138.773C361.601 138.527 361.433 138.106 361.246 137.41L360.119 133.203C359.686 131.586 358.331 130.495 355.967 131.129C354.176 131.609 353.074 133.059 353.324 134.688L354.729 134.647C354.567 133.554 355.101 132.628 356.318 132.302C357.622 131.952 358.439 132.498 358.691 133.436C358.788 133.802 358.719 134.1 358.134 134.35L355.98 135.281C354.575 135.881 353.768 136.973 354.16 138.433ZM357.421 138.92C356.464 139.176 355.714 138.669 355.532 137.991C355.313 137.174 355.766 136.568 356.533 136.232L359.138 135.106L359.287 135.662C359.762 137.435 358.864 138.533 357.421 138.92ZM366.462 128.521C366.331 128.519 366.079 128.55 365.853 128.61C364.931 128.857 363.978 129.541 363.765 130.903L363.364 129.408L362.008 129.771L364.239 138.099L365.63 137.726L364.475 133.415C363.972 131.537 364.714 130.481 366.105 130.108C366.348 130.043 366.614 129.99 366.858 129.999L366.462 128.521ZM373.358 139.196L375.579 126.134L374.067 126.54L373.055 133.128L368.729 127.97L367.129 128.399L372.677 134.776L371.811 139.611L373.358 139.196Z" fill="#101820"/>
<rect x="448.922" y="105.056" width="79" height="8" transform="rotate(-15 448.922 105.056)" fill="white"/>
<rect x="252" y="76" width="392" height="470" fill="white"/>
<rect x="252.5" y="76.5" width="391" height="469" stroke="#101820" stroke-opacity="0.2"/>
<rect opacity="0.1" x="262" y="86" width="372" height="80" fill="#7A2582"/>
<g opacity="0.1">
<rect x="291" y="216" width="177" height="8" fill="#5D40BD"/>
<rect x="291" y="229" width="144.935" height="8" fill="#5D40BD"/>
<rect x="291" y="242" width="50.0217" height="8" fill="#5D40BD"/>
<rect x="291" y="255" width="94.913" height="8" fill="#5D40BD"/>
</g>
<g opacity="0.1">
<rect x="291" y="294" width="177" height="8" fill="#5D40BD"/>
<rect x="291" y="307" width="144.935" height="8" fill="#5D40BD"/>
<rect x="291" y="320" width="50.0217" height="8" fill="#5D40BD"/>
<rect x="291" y="333" width="94.913" height="8" fill="#5D40BD"/>
</g>
<g opacity="0.1">
<rect x="291" y="372" width="177" height="8" fill="#5D40BD"/>
<rect x="291" y="385" width="144.935" height="8" fill="#5D40BD"/>
<rect x="291" y="398" width="128" height="8" fill="#5D40BD"/>
<rect x="291" y="411" width="59" height="8" fill="#5D40BD"/>
</g>
<g opacity="0.1">
<rect x="291" y="450" width="139" height="8" fill="#5D40BD"/>
<rect x="291" y="463" width="101" height="8" fill="#5D40BD"/>
<rect x="291" y="476" width="128" height="8" fill="#5D40BD"/>
<rect x="291" y="489" width="79" height="8" fill="#5D40BD"/>
</g>
<path d="M507.08 233.448C507.368 237.12 510.896 240.576 515.972 240.576C521.588 240.576 524.936 236.796 524.936 232.44C524.936 227.436 521.624 224.628 516.944 224.628C515.396 224.628 513.74 225.132 512.732 226.068L513.884 220.92H523.676V216.636H510.5L507.728 228.624C508.232 228.768 511.796 229.992 512.264 230.172C513.02 229.308 514.28 228.588 515.864 228.588C518.024 228.588 520.004 229.848 520.004 232.512C520.004 234.852 518.204 236.328 515.972 236.328C513.488 236.328 511.832 234.564 511.724 232.404L507.08 233.448ZM536.655 226.212C534.495 226.212 533.235 224.808 533.235 223.152C533.235 221.604 534.495 220.2 536.655 220.2C538.851 220.2 540.111 221.604 540.111 223.152C540.111 224.808 538.851 226.212 536.655 226.212ZM536.655 236.436C534.099 236.436 532.731 234.852 532.731 233.196C532.731 231.504 534.027 229.884 536.655 229.884C539.283 229.884 540.615 231.504 540.615 233.196C540.615 234.852 539.247 236.436 536.655 236.436ZM536.655 240.54C541.983 240.54 545.475 237.732 545.475 233.7C545.475 231.18 543.819 228.912 541.371 228.012C543.711 227.148 545.007 224.844 545.007 222.792C545.007 218.868 541.515 216.096 536.655 216.096C531.795 216.096 528.303 218.868 528.303 222.792C528.303 224.88 529.635 227.148 531.975 228.012C529.491 228.948 527.835 231.18 527.835 233.7C527.835 237.732 531.327 240.54 536.655 240.54ZM555.414 229.632C555.918 229.452 556.53 229.272 557.538 229.272C559.77 229.272 561.354 230.532 561.354 232.728C561.354 234.672 559.878 236.256 557.394 236.256C554.946 236.256 553.254 234.528 553.146 232.152L548.358 233.088C548.646 237.012 551.958 240.54 557.394 240.54C563.046 240.54 566.358 236.832 566.358 232.8C566.358 228.516 563.118 225.816 559.59 225.672L565.638 220.632V216.636H549.114V220.92H559.338L553.218 226.176L555.414 229.632ZM509.276 265V252.238H507.764V265H509.276ZM518.519 263.758C518.519 264.316 518.573 264.802 518.609 265H520.013C519.977 264.82 519.923 264.244 519.923 263.38V251.986H518.483V257.764C518.195 257.044 517.349 256.126 515.693 256.126C513.281 256.126 511.697 258.178 511.697 260.68C511.697 263.236 513.209 265.252 515.693 265.252C517.187 265.252 518.123 264.37 518.519 263.524V263.758ZM515.819 263.956C514.199 263.956 513.137 262.588 513.137 260.68C513.137 258.772 514.181 257.422 515.819 257.422C517.457 257.422 518.519 258.772 518.519 260.68C518.519 262.588 517.439 263.956 515.819 263.956ZM523.65 259.852C523.74 258.574 524.748 257.404 526.242 257.404C527.88 257.404 528.762 258.484 528.798 259.852H523.65ZM528.996 262.102C528.654 263.128 527.862 263.956 526.404 263.956C524.856 263.956 523.614 262.786 523.614 261.148V261.076H530.256C530.274 260.95 530.292 260.752 530.292 260.572C530.292 257.944 528.834 256.126 526.224 256.126C524.046 256.126 522.138 257.944 522.138 260.662C522.138 263.56 524.1 265.252 526.404 265.252C528.402 265.252 529.752 264.046 530.238 262.552L528.996 262.102ZM533.91 259.924C533.91 258.574 534.684 257.422 536.07 257.422C537.636 257.422 538.212 258.43 538.212 259.69V265H539.652V259.474C539.652 257.602 538.644 256.126 536.574 256.126C535.44 256.126 534.432 256.666 533.874 257.674V256.378H532.47V265H533.91V259.924ZM544.349 253.642H542.999V255.064C542.999 255.874 542.621 256.378 541.739 256.378H541.181V257.674H542.909V262.642C542.909 264.208 543.827 265.09 545.249 265.09C545.807 265.09 546.221 264.982 546.383 264.928V263.704C546.239 263.74 545.915 263.794 545.663 263.794C544.745 263.794 544.349 263.344 544.349 262.444V257.674H546.383V256.378H544.349V253.642ZM549.801 265V256.378H548.361V265H549.801ZM548.001 252.976C548.001 253.57 548.487 254.056 549.081 254.056C549.675 254.056 550.161 253.57 550.161 252.976C550.161 252.382 549.675 251.896 549.081 251.896C548.487 251.896 548.001 252.382 548.001 252.976ZM560.319 265V256.378H554.703V254.812C554.703 253.57 555.495 253.192 556.197 253.192C556.611 253.192 556.845 253.264 556.971 253.318V252.076C556.845 252.004 556.503 251.896 555.981 251.896C554.451 251.896 553.263 252.886 553.263 254.776V256.378H551.571V257.674H553.263V265H554.703V257.674H558.879V265H560.319ZM558.519 252.976C558.519 253.57 559.005 254.056 559.599 254.056C560.193 254.056 560.679 253.57 560.679 252.976C560.679 252.382 560.193 251.896 559.599 251.896C559.005 251.896 558.519 252.382 558.519 252.976ZM564.045 259.852C564.135 258.574 565.143 257.404 566.637 257.404C568.275 257.404 569.157 258.484 569.193 259.852H564.045ZM569.391 262.102C569.049 263.128 568.257 263.956 566.799 263.956C565.251 263.956 564.009 262.786 564.009 261.148V261.076H570.651C570.669 260.95 570.687 260.752 570.687 260.572C570.687 257.944 569.229 256.126 566.619 256.126C564.441 256.126 562.533 257.944 562.533 260.662C562.533 263.56 564.495 265.252 566.799 265.252C568.797 265.252 570.147 264.046 570.633 262.552L569.391 262.102ZM579.111 263.758C579.111 264.316 579.165 264.802 579.201 265H580.605C580.569 264.82 580.515 264.244 580.515 263.38V251.986H579.075V257.764C578.787 257.044 577.941 256.126 576.285 256.126C573.873 256.126 572.289 258.178 572.289 260.68C572.289 263.236 573.801 265.252 576.285 265.252C577.779 265.252 578.715 264.37 579.111 263.524V263.758ZM576.411 263.956C574.791 263.956 573.729 262.588 573.729 260.68C573.729 258.772 574.773 257.422 576.411 257.422C578.049 257.422 579.111 258.772 579.111 260.68C579.111 262.588 578.031 263.956 576.411 263.956Z" fill="#101820"/>
<path d="M525.404 292.176C524.432 291.6 522.668 291.096 520.508 291.096C512.804 291.096 507.548 296.424 507.548 304.812C507.548 311.868 511.904 315.54 517.016 315.54C522.164 315.54 526.052 312.12 526.052 307.332C526.052 302.508 522.776 299.484 517.988 299.484C515.252 299.484 513.308 300.78 512.444 302.076C512.984 297.684 516.224 295.38 520.184 295.38C521.66 295.38 523.028 295.776 524.036 296.208L525.404 292.176ZM512.876 307.44C512.876 305.028 514.748 303.552 516.98 303.552C519.248 303.552 521.12 305.028 521.12 307.44C521.12 309.852 519.248 311.364 516.98 311.364C514.82 311.364 512.876 309.816 512.876 307.44ZM513.182 340.252C516.098 340.252 518.132 338.542 518.78 336.148L517.448 335.662C516.926 337.498 515.45 338.866 513.182 338.866C510.752 338.866 508.412 337.084 508.412 333.61C508.412 330.154 510.752 328.372 513.182 328.372C515.36 328.372 516.872 329.524 517.358 331.522L518.762 331.036C518.132 328.588 516.08 326.986 513.182 326.986C510.032 326.986 506.9 329.344 506.9 333.61C506.9 337.876 509.942 340.252 513.182 340.252ZM524.56 331.126C522.076 331.126 520.24 333.034 520.24 335.68C520.24 338.344 522.076 340.252 524.56 340.252C527.044 340.252 528.88 338.344 528.88 335.68C528.88 333.034 527.044 331.126 524.56 331.126ZM524.56 332.422C526.108 332.422 527.44 333.592 527.44 335.68C527.44 337.786 526.108 338.956 524.56 338.956C523.012 338.956 521.68 337.786 521.68 335.68C521.68 333.592 523.012 332.422 524.56 332.422ZM532.539 334.924C532.539 333.574 533.313 332.422 534.699 332.422C536.265 332.422 536.841 333.43 536.841 334.69V340H538.281V334.474C538.281 332.602 537.273 331.126 535.203 331.126C534.069 331.126 533.061 331.666 532.503 332.674V331.378H531.099V340H532.539V334.924ZM548.682 340V331.378H543.066V329.812C543.066 328.57 543.858 328.192 544.56 328.192C544.974 328.192 545.208 328.264 545.334 328.318V327.076C545.208 327.004 544.866 326.896 544.344 326.896C542.814 326.896 541.626 327.886 541.626 329.776V331.378H539.934V332.674H541.626V340H543.066V332.674H547.242V340H548.682ZM546.882 327.976C546.882 328.57 547.368 329.056 547.962 329.056C548.556 329.056 549.042 328.57 549.042 327.976C549.042 327.382 548.556 326.896 547.962 326.896C547.368 326.896 546.882 327.382 546.882 327.976ZM556.116 331.324C555.99 331.288 555.738 331.252 555.504 331.252C554.55 331.252 553.452 331.666 552.894 332.926V331.378H551.49V340H552.93V335.536C552.93 333.592 553.92 332.764 555.36 332.764C555.612 332.764 555.882 332.782 556.116 332.854V331.324ZM559.222 331.378H557.818V340H559.258V334.78C559.258 333.43 560.104 332.422 561.4 332.422C562.768 332.422 563.398 333.34 563.398 334.528V340H564.838V334.762C564.838 333.466 565.702 332.422 566.98 332.422C568.33 332.422 568.96 333.34 568.96 334.528V340H570.4V334.366C570.4 332.206 568.996 331.126 567.43 331.126C566.206 331.126 565.126 331.666 564.514 332.89C564.082 331.756 563.056 331.126 561.868 331.126C560.752 331.126 559.708 331.702 559.222 332.602V331.378ZM574.011 334.852C574.101 333.574 575.109 332.404 576.603 332.404C578.241 332.404 579.123 333.484 579.159 334.852H574.011ZM579.357 337.102C579.015 338.128 578.223 338.956 576.765 338.956C575.217 338.956 573.975 337.786 573.975 336.148V336.076H580.617C580.635 335.95 580.653 335.752 580.653 335.572C580.653 332.944 579.195 331.126 576.585 331.126C574.407 331.126 572.499 332.944 572.499 335.662C572.499 338.56 574.461 340.252 576.765 340.252C578.763 340.252 580.113 339.046 580.599 337.552L579.357 337.102ZM589.078 338.758C589.078 339.316 589.132 339.802 589.168 340H590.572C590.536 339.82 590.482 339.244 590.482 338.38V326.986H589.042V332.764C588.754 332.044 587.908 331.126 586.252 331.126C583.84 331.126 582.256 333.178 582.256 335.68C582.256 338.236 583.768 340.252 586.252 340.252C587.746 340.252 588.682 339.37 589.078 338.524V338.758ZM586.378 338.956C584.758 338.956 583.696 337.588 583.696 335.68C583.696 333.772 584.74 332.422 586.378 332.422C588.016 332.422 589.078 333.772 589.078 335.68C589.078 337.588 587.998 338.956 586.378 338.956Z" fill="#101820"/>
<path d="M512.552 375.672C512.444 375.276 512.372 374.808 512.372 374.376C512.372 372.18 513.596 370.488 516.08 370.488C518.42 370.488 519.608 372 519.608 373.692C519.608 375.312 518.816 376.536 516.836 377.724L512.984 380.028C508.808 382.548 507.512 385.896 507.476 390H524.756V385.716H513.56C513.92 384.816 514.676 384.168 515.576 383.592L520.076 380.856C522.956 379.092 524.612 376.644 524.612 373.62C524.612 369.552 521.408 366.096 516.188 366.096C510.752 366.096 507.656 369.804 507.656 373.908C507.656 374.484 507.764 375.204 507.836 375.528L512.552 375.672ZM513.182 415.252C516.098 415.252 518.132 413.542 518.78 411.148L517.448 410.662C516.926 412.498 515.45 413.866 513.182 413.866C510.752 413.866 508.412 412.084 508.412 408.61C508.412 405.154 510.752 403.372 513.182 403.372C515.36 403.372 516.872 404.524 517.358 406.522L518.762 406.036C518.132 403.588 516.08 401.986 513.182 401.986C510.032 401.986 506.9 404.344 506.9 408.61C506.9 412.876 509.942 415.252 513.182 415.252ZM525.46 406.324C525.334 406.288 525.082 406.252 524.848 406.252C523.894 406.252 522.796 406.666 522.238 407.926V406.378H520.834V415H522.274V410.536C522.274 408.592 523.264 407.764 524.704 407.764C524.956 407.764 525.226 407.782 525.46 407.854V406.324ZM528.602 415V406.378H527.162V415H528.602ZM526.802 402.976C526.802 403.57 527.288 404.056 527.882 404.056C528.476 404.056 528.962 403.57 528.962 402.976C528.962 402.382 528.476 401.896 527.882 401.896C527.288 401.896 526.802 402.382 526.802 402.976ZM533.504 403.642H532.154V405.064C532.154 405.874 531.776 406.378 530.894 406.378H530.336V407.674H532.064V412.642C532.064 414.208 532.982 415.09 534.404 415.09C534.962 415.09 535.376 414.982 535.538 414.928V413.704C535.394 413.74 535.07 413.794 534.818 413.794C533.9 413.794 533.504 413.344 533.504 412.444V407.674H535.538V406.378H533.504V403.642ZM538.955 415V406.378H537.515V415H538.955ZM537.155 402.976C537.155 403.57 537.641 404.056 538.235 404.056C538.829 404.056 539.315 403.57 539.315 402.976C539.315 402.382 538.829 401.896 538.235 401.896C537.641 401.896 537.155 402.382 537.155 402.976ZM545.441 407.422C546.989 407.422 547.691 408.484 547.925 409.402L549.221 408.844C548.861 407.476 547.655 406.126 545.441 406.126C543.011 406.126 541.175 407.998 541.175 410.68C541.175 413.308 542.975 415.252 545.459 415.252C547.673 415.252 548.879 413.848 549.293 412.57L548.033 412.012C547.781 412.804 547.097 413.956 545.459 413.956C543.929 413.956 542.615 412.75 542.615 410.68C542.615 408.592 543.929 407.422 545.441 407.422ZM550.737 412.714C550.737 414.028 551.799 415.252 553.581 415.252C555.129 415.252 556.065 414.406 556.443 413.704C556.443 414.37 556.515 414.802 556.551 415H557.955C557.901 414.73 557.847 414.28 557.847 413.56V409.204C557.847 407.53 556.821 406.126 554.373 406.126C552.519 406.126 551.079 407.242 550.899 408.88L552.267 409.204C552.393 408.106 553.149 407.35 554.409 407.35C555.759 407.35 556.407 408.088 556.407 409.06C556.407 409.438 556.263 409.708 555.633 409.798L553.311 410.14C551.799 410.356 550.737 411.202 550.737 412.714ZM553.761 414.028C552.771 414.028 552.177 413.344 552.177 412.642C552.177 411.796 552.771 411.328 553.599 411.202L556.407 410.788V411.364C556.407 413.2 555.255 414.028 553.761 414.028ZM562 415V401.986H560.56V415H562Z" fill="#101820"/>
<path d="M512.552 450.672C512.444 450.276 512.372 449.808 512.372 449.376C512.372 447.18 513.596 445.488 516.08 445.488C518.42 445.488 519.608 447 519.608 448.692C519.608 450.312 518.816 451.536 516.836 452.724L512.984 455.028C508.808 457.548 507.512 460.896 507.476 465H524.756V460.716H513.56C513.92 459.816 514.676 459.168 515.576 458.592L520.076 455.856C522.956 454.092 524.612 451.644 524.612 448.62C524.612 444.552 521.408 441.096 516.188 441.096C510.752 441.096 507.656 444.804 507.656 448.908C507.656 449.484 507.764 450.204 507.836 450.528L512.552 450.672ZM527.506 458.448C527.794 462.12 531.322 465.576 536.398 465.576C542.014 465.576 545.362 461.796 545.362 457.44C545.362 452.436 542.05 449.628 537.37 449.628C535.822 449.628 534.166 450.132 533.158 451.068L534.31 445.92H544.102V441.636H530.926L528.154 453.624C528.658 453.768 532.222 454.992 532.69 455.172C533.446 454.308 534.706 453.588 536.29 453.588C538.45 453.588 540.43 454.848 540.43 457.512C540.43 459.852 538.63 461.328 536.398 461.328C533.914 461.328 532.258 459.564 532.15 457.404L527.506 458.448ZM548.657 464.244C549.881 465 552.077 465.54 554.057 465.54C562.049 465.54 566.261 460.572 566.261 452.148C566.261 444.696 562.013 441.096 556.937 441.096C551.753 441.096 547.973 444.516 547.973 449.304C547.973 454.128 551.681 457.152 556.037 457.152C558.485 457.152 560.465 456.108 561.437 454.632C561.113 458.916 558.269 461.256 554.021 461.256C552.401 461.256 550.709 460.716 549.881 460.248L548.657 464.244ZM560.789 449.16C560.789 451.464 558.953 453.012 556.757 453.012C554.561 453.012 552.761 451.5 552.761 449.16C552.761 446.856 554.597 445.308 556.757 445.308C558.953 445.308 560.789 446.856 560.789 449.16ZM509.276 490V477.238H507.764V490H509.276ZM513.889 484.924C513.889 483.574 514.663 482.422 516.049 482.422C517.615 482.422 518.191 483.43 518.191 484.69V490H519.631V484.474C519.631 482.602 518.623 481.126 516.553 481.126C515.419 481.126 514.411 481.666 513.853 482.674V481.378H512.449V490H513.889V484.924ZM526.648 482.674V481.378H524.416V479.812C524.416 478.57 525.208 478.192 525.91 478.192C526.324 478.192 526.558 478.264 526.684 478.318V477.076C526.558 477.004 526.216 476.896 525.694 476.896C524.164 476.896 522.976 477.886 522.976 479.776V481.378H521.284V482.674H522.976V490H524.416V482.674H526.648ZM531.925 481.126C529.441 481.126 527.605 483.034 527.605 485.68C527.605 488.344 529.441 490.252 531.925 490.252C534.409 490.252 536.245 488.344 536.245 485.68C536.245 483.034 534.409 481.126 531.925 481.126ZM531.925 482.422C533.473 482.422 534.805 483.592 534.805 485.68C534.805 487.786 533.473 488.956 531.925 488.956C530.377 488.956 529.045 487.786 529.045 485.68C529.045 483.592 530.377 482.422 531.925 482.422ZM543.091 481.324C542.965 481.288 542.713 481.252 542.479 481.252C541.525 481.252 540.427 481.666 539.869 482.926V481.378H538.465V490H539.905V485.536C539.905 483.592 540.895 482.764 542.335 482.764C542.587 482.764 542.857 482.782 543.091 482.854V481.324ZM546.197 481.378H544.793V490H546.233V484.78C546.233 483.43 547.079 482.422 548.375 482.422C549.743 482.422 550.373 483.34 550.373 484.528V490H551.813V484.762C551.813 483.466 552.677 482.422 553.955 482.422C555.305 482.422 555.935 483.34 555.935 484.528V490H557.375V484.366C557.375 482.206 555.971 481.126 554.405 481.126C553.181 481.126 552.101 481.666 551.489 482.89C551.057 481.756 550.031 481.126 548.843 481.126C547.727 481.126 546.683 481.702 546.197 482.602V481.378ZM559.456 487.714C559.456 489.028 560.518 490.252 562.3 490.252C563.848 490.252 564.784 489.406 565.162 488.704C565.162 489.37 565.234 489.802 565.27 490H566.674C566.62 489.73 566.566 489.28 566.566 488.56V484.204C566.566 482.53 565.54 481.126 563.092 481.126C561.238 481.126 559.798 482.242 559.618 483.88L560.986 484.204C561.112 483.106 561.868 482.35 563.128 482.35C564.478 482.35 565.126 483.088 565.126 484.06C565.126 484.438 564.982 484.708 564.352 484.798L562.03 485.14C560.518 485.356 559.456 486.202 559.456 487.714ZM562.48 489.028C561.49 489.028 560.896 488.344 560.896 487.642C560.896 486.796 561.49 486.328 562.318 486.202L565.126 485.788V486.364C565.126 488.2 563.974 489.028 562.48 489.028ZM571.297 478.642H569.947V480.064C569.947 480.874 569.569 481.378 568.687 481.378H568.129V482.674H569.857V487.642C569.857 489.208 570.775 490.09 572.197 490.09C572.755 490.09 573.169 489.982 573.331 489.928V488.704C573.187 488.74 572.863 488.794 572.611 488.794C571.693 488.794 571.297 488.344 571.297 487.444V482.674H573.331V481.378H571.297V478.642ZM576.748 490V481.378H575.308V490H576.748ZM574.948 477.976C574.948 478.57 575.434 479.056 576.028 479.056C576.622 479.056 577.108 478.57 577.108 477.976C577.108 477.382 576.622 476.896 576.028 476.896C575.434 476.896 574.948 477.382 574.948 477.976ZM583.288 481.126C580.804 481.126 578.968 483.034 578.968 485.68C578.968 488.344 580.804 490.252 583.288 490.252C585.772 490.252 587.608 488.344 587.608 485.68C587.608 483.034 585.772 481.126 583.288 481.126ZM583.288 482.422C584.836 482.422 586.168 483.592 586.168 485.68C586.168 487.786 584.836 488.956 583.288 488.956C581.74 488.956 580.408 487.786 580.408 485.68C580.408 483.592 581.74 482.422 583.288 482.422ZM591.268 484.924C591.268 483.574 592.042 482.422 593.428 482.422C594.994 482.422 595.57 483.43 595.57 484.69V490H597.01V484.474C597.01 482.602 596.002 481.126 593.932 481.126C592.798 481.126 591.79 481.666 591.232 482.674V481.378H589.828V490H591.268V484.924ZM599.095 487.714C599.095 489.028 600.157 490.252 601.939 490.252C603.487 490.252 604.423 489.406 604.801 488.704C604.801 489.37 604.873 489.802 604.909 490H606.313C606.259 489.73 606.205 489.28 606.205 488.56V484.204C606.205 482.53 605.179 481.126 602.731 481.126C600.877 481.126 599.437 482.242 599.257 483.88L600.625 484.204C600.751 483.106 601.507 482.35 602.767 482.35C604.117 482.35 604.765 483.088 604.765 484.06C604.765 484.438 604.621 484.708 603.991 484.798L601.669 485.14C600.157 485.356 599.095 486.202 599.095 487.714ZM602.119 489.028C601.129 489.028 600.535 488.344 600.535 487.642C600.535 486.796 601.129 486.328 601.957 486.202L604.765 485.788V486.364C604.765 488.2 603.613 489.028 602.119 489.028ZM610.358 490V476.986H608.918V490H610.358Z" fill="#101820"/>
<path d="M300.594 122.136C300.27 120.66 299.1 118.986 296.346 118.986C294.042 118.986 292.206 120.696 292.206 122.694C292.206 124.566 293.484 125.718 295.248 126.114L297.12 126.528C298.47 126.834 299.19 127.644 299.19 128.688C299.19 129.912 298.2 130.884 296.364 130.884C294.348 130.884 293.25 129.516 293.106 128.004L291.684 128.454C291.918 130.326 293.412 132.252 296.364 132.252C299.028 132.252 300.702 130.524 300.702 128.562C300.702 126.762 299.478 125.484 297.426 125.034L295.554 124.62C294.384 124.368 293.718 123.63 293.718 122.604C293.718 121.308 294.888 120.336 296.364 120.336C298.2 120.354 299.046 121.542 299.244 122.622L300.594 122.136ZM306.676 124.422C308.224 124.422 308.926 125.484 309.16 126.402L310.456 125.844C310.096 124.476 308.89 123.126 306.676 123.126C304.246 123.126 302.41 124.998 302.41 127.68C302.41 130.308 304.21 132.252 306.694 132.252C308.908 132.252 310.114 130.848 310.528 129.57L309.268 129.012C309.016 129.804 308.332 130.956 306.694 130.956C305.164 130.956 303.85 129.75 303.85 127.68C303.85 125.592 305.164 124.422 306.676 124.422ZM311.972 129.714C311.972 131.028 313.034 132.252 314.816 132.252C316.364 132.252 317.3 131.406 317.678 130.704C317.678 131.37 317.75 131.802 317.786 132H319.19C319.136 131.73 319.082 131.28 319.082 130.56V126.204C319.082 124.53 318.056 123.126 315.608 123.126C313.754 123.126 312.314 124.242 312.134 125.88L313.502 126.204C313.628 125.106 314.384 124.35 315.644 124.35C316.994 124.35 317.642 125.088 317.642 126.06C317.642 126.438 317.498 126.708 316.868 126.798L314.546 127.14C313.034 127.356 311.972 128.202 311.972 129.714ZM314.996 131.028C314.006 131.028 313.412 130.344 313.412 129.642C313.412 128.796 314.006 128.328 314.834 128.202L317.642 127.788V128.364C317.642 130.2 316.49 131.028 314.996 131.028ZM323.235 126.924C323.235 125.574 324.009 124.422 325.395 124.422C326.961 124.422 327.537 125.43 327.537 126.69V132H328.977V126.474C328.977 124.602 327.969 123.126 325.899 123.126C324.765 123.126 323.757 123.666 323.199 124.674V123.378H321.795V132H323.235V126.924ZM343.335 132H345.099L342.003 126.546C343.929 126.24 345.117 124.818 345.117 122.964C345.117 120.894 343.623 119.238 341.265 119.238H336.621V132H338.133V126.654H340.347L343.335 132ZM338.133 125.304V120.588H341.031C342.579 120.588 343.605 121.524 343.605 122.964C343.605 124.386 342.579 125.304 341.031 125.304H338.133ZM347.885 126.852C347.975 125.574 348.983 124.404 350.477 124.404C352.115 124.404 352.997 125.484 353.033 126.852H347.885ZM353.231 129.102C352.889 130.128 352.097 130.956 350.639 130.956C349.091 130.956 347.849 129.786 347.849 128.148V128.076H354.491C354.509 127.95 354.527 127.752 354.527 127.572C354.527 124.944 353.069 123.126 350.459 123.126C348.281 123.126 346.373 124.944 346.373 127.662C346.373 130.56 348.335 132.252 350.639 132.252C352.637 132.252 353.987 131.046 354.473 129.552L353.231 129.102ZM358.145 135.42V130.668C358.595 131.478 359.585 132.252 361.061 132.252C363.545 132.252 365.021 130.254 365.021 127.68C365.021 125.106 363.635 123.126 361.097 123.126C359.567 123.126 358.559 123.936 358.109 124.818V123.378H356.705V135.42H358.145ZM360.845 130.956C359.189 130.956 358.109 129.588 358.109 127.68C358.109 125.772 359.171 124.422 360.845 124.422C362.519 124.422 363.581 125.772 363.581 127.68C363.581 129.588 362.501 130.956 360.845 130.956ZM370.978 123.126C368.494 123.126 366.658 125.034 366.658 127.68C366.658 130.344 368.494 132.252 370.978 132.252C373.462 132.252 375.298 130.344 375.298 127.68C375.298 125.034 373.462 123.126 370.978 123.126ZM370.978 124.422C372.526 124.422 373.858 125.592 373.858 127.68C373.858 129.786 372.526 130.956 370.978 130.956C369.43 130.956 368.098 129.786 368.098 127.68C368.098 125.592 369.43 124.422 370.978 124.422ZM382.143 123.324C382.017 123.288 381.765 123.252 381.531 123.252C380.577 123.252 379.479 123.666 378.921 124.926V123.378H377.517V132H378.957V127.536C378.957 125.592 379.947 124.764 381.387 124.764C381.639 124.764 381.909 124.782 382.143 124.854V123.324ZM385.933 120.642H384.583V122.064C384.583 122.874 384.205 123.378 383.323 123.378H382.765V124.674H384.493V129.642C384.493 131.208 385.411 132.09 386.833 132.09C387.391 132.09 387.805 131.982 387.967 131.928V130.704C387.823 130.74 387.499 130.794 387.247 130.794C386.329 130.794 385.933 130.344 385.933 129.444V124.674H387.967V123.378H385.933V120.642ZM402.723 122.136C402.399 120.66 401.229 118.986 398.475 118.986C396.171 118.986 394.335 120.696 394.335 122.694C394.335 124.566 395.613 125.718 397.377 126.114L399.249 126.528C400.599 126.834 401.319 127.644 401.319 128.688C401.319 129.912 400.329 130.884 398.493 130.884C396.477 130.884 395.379 129.516 395.235 128.004L393.813 128.454C394.047 130.326 395.541 132.252 398.493 132.252C401.157 132.252 402.831 130.524 402.831 128.562C402.831 126.762 401.607 125.484 399.555 125.034L397.683 124.62C396.513 124.368 395.847 123.63 395.847 122.604C395.847 121.308 397.017 120.336 398.493 120.336C400.329 120.354 401.175 121.542 401.373 122.622L402.723 122.136ZM410.716 130.83V130.902C410.716 131.334 410.752 131.802 410.806 132H412.192C412.138 131.658 412.084 131.046 412.084 130.38V123.378H410.644V128.58C410.644 129.948 409.87 130.956 408.448 130.956C406.918 130.956 406.324 129.822 406.324 128.562V123.378H404.884V128.796C404.884 130.704 406.036 132.252 408.124 132.252C409.258 132.252 410.302 131.712 410.716 130.83ZM416.292 123.378H414.888V132H416.328V126.78C416.328 125.43 417.174 124.422 418.47 124.422C419.838 124.422 420.468 125.34 420.468 126.528V132H421.908V126.762C421.908 125.466 422.772 124.422 424.05 124.422C425.4 124.422 426.03 125.34 426.03 126.528V132H427.47V126.366C427.47 124.206 426.066 123.126 424.5 123.126C423.276 123.126 422.196 123.666 421.584 124.89C421.152 123.756 420.126 123.126 418.938 123.126C417.822 123.126 416.778 123.702 416.292 124.602V123.378ZM431.568 123.378H430.164V132H431.604V126.78C431.604 125.43 432.45 124.422 433.746 124.422C435.114 124.422 435.744 125.34 435.744 126.528V132H437.184V126.762C437.184 125.466 438.048 124.422 439.326 124.422C440.676 124.422 441.306 125.34 441.306 126.528V132H442.746V126.366C442.746 124.206 441.342 123.126 439.776 123.126C438.552 123.126 437.472 123.666 436.86 124.89C436.428 123.756 435.402 123.126 434.214 123.126C433.098 123.126 432.054 123.702 431.568 124.602V123.378ZM444.827 129.714C444.827 131.028 445.889 132.252 447.671 132.252C449.219 132.252 450.155 131.406 450.533 130.704C450.533 131.37 450.605 131.802 450.641 132H452.045C451.991 131.73 451.937 131.28 451.937 130.56V126.204C451.937 124.53 450.911 123.126 448.463 123.126C446.609 123.126 445.169 124.242 444.989 125.88L446.357 126.204C446.483 125.106 447.239 124.35 448.499 124.35C449.849 124.35 450.497 125.088 450.497 126.06C450.497 126.438 450.353 126.708 449.723 126.798L447.401 127.14C445.889 127.356 444.827 128.202 444.827 129.714ZM447.851 131.028C446.861 131.028 446.267 130.344 446.267 129.642C446.267 128.796 446.861 128.328 447.689 128.202L450.497 127.788V128.364C450.497 130.2 449.345 131.028 447.851 131.028ZM459.276 123.324C459.15 123.288 458.898 123.252 458.664 123.252C457.71 123.252 456.612 123.666 456.054 124.926V123.378H454.65V132H456.09V127.536C456.09 125.592 457.08 124.764 458.52 124.764C458.772 124.764 459.042 124.782 459.276 124.854V123.324ZM463.174 135.42L468.7 123.378H467.134L464.452 129.48L461.608 123.378H459.952L463.66 130.974L461.572 135.42H463.174Z" fill="#101820"/>
<rect x="545" y="122" width="79" height="8" fill="white"/>
<g filter="url(#filter0_bd_154_3501)">
<rect x="15" y="144" width="334" height="312" fill="white" fill-opacity="0.4" shape-rendering="crispEdges"/>
<rect x="15.5" y="144.5" width="333" height="311" stroke="#101820" stroke-opacity="0.2" shape-rendering="crispEdges"/>
</g>
<rect x="54" y="184" width="261" height="70" fill="url(#paint1_linear_154_3501)"/>
<path d="M137.704 225V213.656H135.48V218.216H130.536V213.656H128.328V225H130.536V220.296H135.48V225H137.704ZM142.599 225V213.656H140.359V225H142.599ZM147.474 218.824V215.576H149.218C150.322 215.576 150.994 216.2 150.994 217.208C150.994 218.184 150.322 218.824 149.218 218.824H147.474ZM149.49 220.728C151.73 220.728 153.218 219.256 153.218 217.192C153.218 215.144 151.73 213.656 149.49 213.656H145.25V225H147.458V220.728H149.49ZM161.726 225H164.126L159.806 213.656H157.246L152.894 225H155.23L156.174 222.408H160.782L161.726 225ZM158.478 216.104L160.046 220.392H156.91L158.478 216.104ZM173.257 225H175.657L171.337 213.656H168.777L164.425 225H166.761L167.705 222.408H172.313L173.257 225ZM170.009 216.104L171.577 220.392H168.441L170.009 216.104ZM186.084 225H188.548L186.116 220.36C187.604 219.928 188.532 218.728 188.532 217.144C188.532 215.176 187.124 213.656 184.916 213.656H180.484V225H182.708V220.632H183.86L186.084 225ZM182.708 218.728V215.576H184.5C185.62 215.576 186.276 216.2 186.276 217.16C186.276 218.088 185.62 218.728 184.5 218.728H182.708ZM197.666 225V222.92H192.77V220.296H197.202V218.328H192.77V215.736H197.666V213.656H190.562V225H197.666ZM202.052 218.824V215.576H203.796C204.9 215.576 205.572 216.2 205.572 217.208C205.572 218.184 204.9 218.824 203.796 218.824H202.052ZM204.068 220.728C206.308 220.728 207.796 219.256 207.796 217.192C207.796 215.144 206.308 213.656 204.068 213.656H199.828V225H202.036V220.728H204.068ZM211.132 219.32C211.132 216.76 212.924 215.544 214.668 215.544C216.428 215.544 218.22 216.76 218.22 219.32C218.22 221.88 216.428 223.096 214.668 223.096C212.924 223.096 211.132 221.88 211.132 219.32ZM208.844 219.336C208.844 222.984 211.596 225.24 214.668 225.24C217.756 225.24 220.508 222.984 220.508 219.336C220.508 215.672 217.756 213.416 214.668 213.416C211.596 213.416 208.844 215.672 208.844 219.336ZM228.084 225H230.548L228.116 220.36C229.604 219.928 230.532 218.728 230.532 217.144C230.532 215.176 229.124 213.656 226.916 213.656H222.484V225H224.708V220.632H225.86L228.084 225ZM224.708 218.728V215.576H226.5C227.62 215.576 228.276 216.2 228.276 217.16C228.276 218.088 227.62 218.728 226.5 218.728H224.708ZM240.882 215.752V213.656H231.49V215.752H235.074V225H237.298V215.752H240.882ZM250.039 216.36C249.783 215.08 248.727 213.416 245.975 213.416C243.831 213.416 242.023 214.952 242.023 216.968C242.023 218.68 243.191 219.848 244.999 220.216L246.583 220.536C247.463 220.712 247.959 221.224 247.959 221.88C247.959 222.68 247.303 223.272 246.119 223.272C244.519 223.272 243.735 222.264 243.639 221.144L241.59 221.688C241.767 223.304 243.095 225.24 246.103 225.24C248.743 225.24 250.199 223.48 250.199 221.736C250.199 220.136 249.095 218.792 247.031 218.392L245.447 218.088C244.615 217.928 244.215 217.432 244.215 216.808C244.215 216.056 244.919 215.368 245.991 215.368C247.431 215.368 247.943 216.344 248.055 216.968L250.039 216.36Z" fill="white"/>
<rect x="73" y="207" width="25" height="25" fill="#101820"/>
<rect x="73.5" y="207.5" width="24" height="24" stroke="white" stroke-opacity="0.55"/>
<path d="M80 220L83.9839 223L89.5 216" stroke="#05D5FF" stroke-width="3"/>
<rect x="54" y="264" width="261" height="70" fill="url(#paint2_linear_154_3501)"/>
<path d="M130.552 298.824V295.576H132.296C133.4 295.576 134.072 296.2 134.072 297.208C134.072 298.184 133.4 298.824 132.296 298.824H130.552ZM132.568 300.728C134.808 300.728 136.296 299.256 136.296 297.192C136.296 295.144 134.808 293.656 132.568 293.656H128.328V305H130.536V300.728H132.568ZM143.152 305.24C146.336 305.24 147.968 303.128 148.4 301.384L146.336 300.76C146.032 301.816 145.088 303.08 143.152 303.08C141.328 303.08 139.632 301.752 139.632 299.336C139.632 296.76 141.424 295.544 143.12 295.544C145.088 295.544 145.968 296.744 146.24 297.832L148.32 297.176C147.872 295.336 146.256 293.416 143.12 293.416C140.08 293.416 137.344 295.72 137.344 299.336C137.344 302.952 139.984 305.24 143.152 305.24ZM152.349 305V293.656H150.109V305H152.349ZM164.397 305H166.861L164.429 300.36C165.917 299.928 166.845 298.728 166.845 297.144C166.845 295.176 165.437 293.656 163.229 293.656H158.797V305H161.021V300.632H162.173L164.397 305ZM161.021 298.728V295.576H162.813C163.933 295.576 164.589 296.2 164.589 297.16C164.589 298.088 163.933 298.728 162.813 298.728H161.021ZM175.979 305V302.92H171.083V300.296H175.515V298.328H171.083V295.736H175.979V293.656H168.875V305H175.979ZM180.365 298.824V295.576H182.109C183.213 295.576 183.885 296.2 183.885 297.208C183.885 298.184 183.213 298.824 182.109 298.824H180.365ZM182.381 300.728C184.621 300.728 186.109 299.256 186.109 297.192C186.109 295.144 184.621 293.656 182.381 293.656H178.141V305H180.349V300.728H182.381ZM189.444 299.32C189.444 296.76 191.236 295.544 192.98 295.544C194.74 295.544 196.532 296.76 196.532 299.32C196.532 301.88 194.74 303.096 192.98 303.096C191.236 303.096 189.444 301.88 189.444 299.32ZM187.156 299.336C187.156 302.984 189.908 305.24 192.98 305.24C196.068 305.24 198.82 302.984 198.82 299.336C198.82 295.672 196.068 293.416 192.98 293.416C189.908 293.416 187.156 295.672 187.156 299.336ZM206.397 305H208.861L206.429 300.36C207.917 299.928 208.845 298.728 208.845 297.144C208.845 295.176 207.437 293.656 205.229 293.656H200.797V305H203.021V300.632H204.173L206.397 305ZM203.021 298.728V295.576H204.813C205.933 295.576 206.589 296.2 206.589 297.16C206.589 298.088 205.933 298.728 204.813 298.728H203.021ZM219.195 295.752V293.656H209.803V295.752H213.387V305H215.611V295.752H219.195ZM228.351 296.36C228.095 295.08 227.039 293.416 224.287 293.416C222.143 293.416 220.335 294.952 220.335 296.968C220.335 298.68 221.503 299.848 223.311 300.216L224.895 300.536C225.775 300.712 226.271 301.224 226.271 301.88C226.271 302.68 225.615 303.272 224.431 303.272C222.831 303.272 222.047 302.264 221.951 301.144L219.903 301.688C220.079 303.304 221.407 305.24 224.415 305.24C227.055 305.24 228.511 303.48 228.511 301.736C228.511 300.136 227.407 298.792 225.343 298.392L223.759 298.088C222.927 297.928 222.527 297.432 222.527 296.808C222.527 296.056 223.231 295.368 224.303 295.368C225.743 295.368 226.255 296.344 226.367 296.968L228.351 296.36Z" fill="white"/>
<rect x="73" y="287" width="25" height="25" fill="#101820"/>
<rect x="73.5" y="287.5" width="24" height="24" stroke="white" stroke-opacity="0.55"/>
<path d="M80 300L83.9839 303L89.5 296" stroke="#05D5FF" stroke-width="3"/>
<rect x="54" y="344" width="261" height="70" fill="url(#paint3_linear_154_3501)"/>
<path d="M129.944 379.32C129.944 376.76 131.736 375.544 133.48 375.544C135.24 375.544 137.032 376.76 137.032 379.32C137.032 381.88 135.24 383.096 133.48 383.096C131.736 383.096 129.944 381.88 129.944 379.32ZM127.656 379.336C127.656 382.984 130.408 385.24 133.48 385.24C136.568 385.24 139.32 382.984 139.32 379.336C139.32 375.672 136.568 373.416 133.48 373.416C130.408 373.416 127.656 375.672 127.656 379.336ZM151.766 381.496L149.238 373.656H146.95L144.438 381.464L142.358 373.656H140.022L143.174 385H145.478L148.07 376.92L150.662 385H152.934L156.07 373.656H153.814L151.766 381.496ZM164.539 385H166.939L162.619 373.656H160.059L155.707 385H158.043L158.987 382.408H163.595L164.539 385ZM161.291 376.104L162.859 380.392H159.723L161.291 376.104ZM175.804 376.36C175.548 375.08 174.492 373.416 171.74 373.416C169.596 373.416 167.788 374.952 167.788 376.968C167.788 378.68 168.956 379.848 170.764 380.216L172.348 380.536C173.228 380.712 173.724 381.224 173.724 381.88C173.724 382.68 173.068 383.272 171.884 383.272C170.284 383.272 169.5 382.264 169.404 381.144L167.356 381.688C167.532 383.304 168.86 385.24 171.868 385.24C174.508 385.24 175.964 383.48 175.964 381.736C175.964 380.136 174.86 378.792 172.796 378.392L171.212 378.088C170.38 377.928 169.98 377.432 169.98 376.808C169.98 376.056 170.684 375.368 171.756 375.368C173.196 375.368 173.708 376.344 173.82 376.968L175.804 376.36ZM180.161 378.824V375.576H181.905C183.009 375.576 183.681 376.2 183.681 377.208C183.681 378.184 183.009 378.824 181.905 378.824H180.161ZM182.177 380.728C184.417 380.728 185.905 379.256 185.905 377.192C185.905 375.144 184.417 373.656 182.177 373.656H177.937V385H180.145V380.728H182.177ZM196.616 385H199.08L196.648 380.36C198.135 379.928 199.064 378.728 199.064 377.144C199.064 375.176 197.656 373.656 195.448 373.656H191.016V385H193.24V380.632H194.391L196.616 385ZM193.24 378.728V375.576H195.032C196.152 375.576 196.808 376.2 196.808 377.16C196.808 378.088 196.152 378.728 195.032 378.728H193.24ZM208.198 385V382.92H203.302V380.296H207.734V378.328H203.302V375.736H208.198V373.656H201.094V385H208.198ZM212.583 378.824V375.576H214.327C215.431 375.576 216.103 376.2 216.103 377.208C216.103 378.184 215.431 378.824 214.327 378.824H212.583ZM214.599 380.728C216.839 380.728 218.327 379.256 218.327 377.192C218.327 375.144 216.839 373.656 214.599 373.656H210.359V385H212.567V380.728H214.599ZM221.663 379.32C221.663 376.76 223.455 375.544 225.199 375.544C226.959 375.544 228.751 376.76 228.751 379.32C228.751 381.88 226.959 383.096 225.199 383.096C223.455 383.096 221.663 381.88 221.663 379.32ZM219.375 379.336C219.375 382.984 222.127 385.24 225.199 385.24C228.287 385.24 231.039 382.984 231.039 379.336C231.039 375.672 228.287 373.416 225.199 373.416C222.127 373.416 219.375 375.672 219.375 379.336ZM238.616 385H241.08L238.648 380.36C240.135 379.928 241.064 378.728 241.064 377.144C241.064 375.176 239.656 373.656 237.448 373.656H233.016V385H235.24V380.632H236.391L238.616 385ZM235.24 378.728V375.576H237.032C238.152 375.576 238.808 376.2 238.808 377.16C238.808 378.088 238.152 378.728 237.032 378.728H235.24ZM251.414 375.752V373.656H242.022V375.752H245.606V385H247.83V375.752H251.414ZM260.57 376.36C260.314 375.08 259.258 373.416 256.506 373.416C254.362 373.416 252.554 374.952 252.554 376.968C252.554 378.68 253.722 379.848 255.53 380.216L257.114 380.536C257.994 380.712 258.49 381.224 258.49 381.88C258.49 382.68 257.834 383.272 256.65 383.272C255.05 383.272 254.266 382.264 254.17 381.144L252.122 381.688C252.298 383.304 253.626 385.24 256.634 385.24C259.274 385.24 260.73 383.48 260.73 381.736C260.73 380.136 259.626 378.792 257.562 378.392L255.978 378.088C255.146 377.928 254.746 377.432 254.746 376.808C254.746 376.056 255.45 375.368 256.522 375.368C257.962 375.368 258.474 376.344 258.586 376.968L260.57 376.36Z" fill="white"/>
<rect x="73" y="367" width="25" height="25" fill="#101820"/>
<rect x="73.5" y="367.5" width="24" height="24" stroke="white" stroke-opacity="0.55"/>
<path d="M80 380L83.9839 383L89.5 376" stroke="#05D5FF" stroke-width="3"/>
<defs>
<filter id="filter0_bd_154_3501" x="-25" y="104" width="414" height="401" filterUnits="userSpaceOnUse" color-interpolation-filters="sRGB">
<feFlood flood-opacity="0" result="BackgroundImageFix"/>
<feGaussianBlur in="BackgroundImageFix" stdDeviation="20"/>
<feComposite in2="SourceAlpha" operator="in" result="effect1_backgroundBlur_154_3501"/>
<feColorMatrix in="SourceAlpha" type="matrix" values="0 0 0 0 0 0 0 0 0 0 0 0 0 0 0 0 0 0 127 0" result="hardAlpha"/>
<feOffset dx="10" dy="24"/>
<feGaussianBlur stdDeviation="12.5"/>
<feComposite in2="hardAlpha" operator="out"/>
<feColorMatrix type="matrix" values="0 0 0 0 0 0 0 0 0 0 0 0 0 0 0 0 0 0 0.1 0"/>
<feBlend mode="normal" in2="effect1_backgroundBlur_154_3501" result="effect2_dropShadow_154_3501"/>
<feBlend mode="normal" in="SourceGraphic" in2="effect2_dropShadow_154_3501" result="shape"/>
</filter>
<linearGradient id="paint0_linear_154_3501" x1="54" y1="584" x2="697.4" y2="442.736" gradientUnits="userSpaceOnUse">
<stop stop-color="#222C3A"/>
<stop offset="0.5" stop-color="#7E7B8A"/>
<stop offset="1" stop-color="#D9D7DD"/>
</linearGradient>
<linearGradient id="paint1_linear_154_3501" x1="54" y1="254" x2="244.582" y2="97.9817" gradientUnits="userSpaceOnUse">
<stop stop-color="#172331"/>
<stop offset="0.49846" stop-color="#2F3646"/>
<stop offset="1" stop-color="#5E5B6D"/>
</linearGradient>
<linearGradient id="paint2_linear_154_3501" x1="54" y1="334" x2="244.582" y2="177.982" gradientUnits="userSpaceOnUse">
<stop stop-color="#172331"/>
<stop offset="0.49846" stop-color="#2F3646"/>
<stop offset="1" stop-color="#5E5B6D"/>
</linearGradient>
<linearGradient id="paint3_linear_154_3501" x1="54" y1="414" x2="244.582" y2="257.982" gradientUnits="userSpaceOnUse">
<stop stop-color="#172331"/>
<stop offset="0.49846" stop-color="#2F3646"/>
<stop offset="1" stop-color="#5E5B6D"/>
</linearGradient>
</defs>
</svg>
