<?xml version="1.0" encoding="UTF-8"?>
<svg xmlns="http://www.w3.org/2000/svg" width="637" height="602" viewBox="0 0 637 602" fill="none">
  <circle cx="299.5" cy="264.5" r="238" stroke="#D9D8D6"></circle>
  <path fill-rule="evenodd" clip-rule="evenodd" d="M278 502C156.354 491.131 61 388.929 61 264.456C61 139.983 156.354 37.7807 278 26.9119L278 29.9242C158.013 40.7835 64 141.641 64 264.456C64 387.271 158.013 488.128 278 498.988L278 502Z" fill="url(#paint0_linear_154_3643)"></path>
  <path fill-rule="evenodd" clip-rule="evenodd" d="M482.938 112C561.269 205.702 556.427 345.395 468.411 433.411C380.395 521.427 240.701 526.269 146.999 447.938L149.129 445.808C241.651 522.973 379.446 518.134 466.29 431.29C553.133 344.446 557.972 206.652 480.807 114.13L482.938 112Z" fill="url(#paint1_linear_154_3643)"></path>
  <circle cx="75.5703" cy="316.996" r="75" fill="url(#paint2_linear_154_3643)"></circle>
  <path d="M69.886 414V410.412H73.461V408.761H69.873V406.486H73.903V404.783H68.079V414H69.886ZM77.0144 414V407.604H75.2854V414H77.0144ZM75.0774 405.511C75.0774 406.083 75.5584 406.564 76.1434 406.564C76.7414 406.564 77.2094 406.083 77.2094 405.511C77.2094 404.913 76.7414 404.432 76.1434 404.432C75.5584 404.432 75.0774 404.913 75.0774 405.511ZM78.0746 414H80.0246C80.2456 413.649 81.1036 412.388 81.3376 412.037L82.6766 414H84.7046L82.3906 410.737L84.6266 407.604H82.6636L81.4026 409.502C81.1816 409.151 80.3496 407.955 80.1286 407.604H78.0746L80.3496 410.789L78.0746 414Z" fill="#101820"></path>
  <path d="M68.5 331.5H78.5V348C78.5 350.485 76.4853 352.5 74 352.5H73C70.5147 352.5 68.5 350.485 68.5 348V331.5Z" stroke="white" stroke-width="3"></path>
  <rect x="72" y="314" width="3" height="19" fill="white"></rect>
  <path d="M70.5 304.5H76.5V314.5H70.5V304.5Z" stroke="white" stroke-width="3"></path>
  <path fill-rule="evenodd" clip-rule="evenodd" d="M52 290H95V324H86V327H95H98V324V290V287H95H52H49V290V324V327H52H61V324H52V290Z" fill="white"></path>
  <rect x="47.5" y="285.5" width="6" height="6" fill="#101820" stroke="#05D5FF" stroke-width="3"></rect>
  <rect x="70.5" y="285.5" width="6" height="6" fill="#101820" stroke="#05D5FF" stroke-width="3"></rect>
  <rect x="93.5" y="285.5" width="6" height="6" fill="#101820" stroke="#05D5FF" stroke-width="3"></rect>
  <rect x="93.5" y="322.5" width="6" height="6" fill="#101820" stroke="#05D5FF" stroke-width="3"></rect>
  <rect x="47.5" y="322.5" width="6" height="6" fill="#101820" stroke="#05D5FF" stroke-width="3"></rect>
  <circle cx="141.998" cy="75" r="75" fill="url(#paint3_linear_154_3643)"></circle>
  <path d="M118.873 170.336V164.447H120.316C121.824 164.447 123.072 165.396 123.072 167.398C123.072 169.4 121.811 170.336 120.303 170.336H118.873ZM120.368 172C122.994 172 124.931 170.31 124.931 167.398C124.931 164.486 123.007 162.783 120.381 162.783H117.079V172H120.368ZM127.745 168.074C127.784 167.489 128.278 166.813 129.175 166.813C130.163 166.813 130.579 167.437 130.605 168.074H127.745ZM130.774 169.738C130.566 170.31 130.124 170.713 129.318 170.713C128.46 170.713 127.745 170.102 127.706 169.257H132.282C132.282 169.231 132.308 168.971 132.308 168.724C132.308 166.67 131.125 165.409 129.149 165.409C127.511 165.409 126.003 166.735 126.003 168.776C126.003 170.934 127.55 172.195 129.305 172.195C130.878 172.195 131.892 171.272 132.217 170.167L130.774 169.738ZM139.586 165.604H137.766L136.245 169.894L134.659 165.604H132.761L135.374 172H137.103L139.586 165.604ZM141.812 168.074C141.851 167.489 142.345 166.813 143.242 166.813C144.23 166.813 144.646 167.437 144.672 168.074H141.812ZM144.841 169.738C144.633 170.31 144.191 170.713 143.384 170.713C142.527 170.713 141.812 170.102 141.773 169.257H146.349C146.349 169.231 146.375 168.971 146.375 168.724C146.375 166.67 145.192 165.409 143.216 165.409C141.578 165.409 140.07 166.735 140.07 168.776C140.07 170.934 141.617 172.195 143.372 172.195C144.945 172.195 145.959 171.272 146.284 170.167L144.841 169.738ZM149.501 172V162.588H147.772V172H149.501ZM154.227 170.622C153.382 170.622 152.602 169.998 152.602 168.802C152.602 167.593 153.382 166.982 154.227 166.982C155.072 166.982 155.852 167.593 155.852 168.802C155.852 170.011 155.072 170.622 154.227 170.622ZM154.227 165.409C152.316 165.409 150.873 166.826 150.873 168.802C150.873 170.765 152.316 172.195 154.227 172.195C156.138 172.195 157.581 170.765 157.581 168.802C157.581 166.826 156.138 165.409 154.227 165.409ZM160.685 174.47V171.376C160.997 171.805 161.647 172.156 162.531 172.156C164.338 172.156 165.547 170.726 165.547 168.789C165.547 166.891 164.468 165.461 162.596 165.461C161.634 165.461 160.919 165.89 160.633 166.384V165.604H158.956V174.47H160.685ZM163.844 168.802C163.844 169.946 163.142 170.609 162.258 170.609C161.374 170.609 160.659 169.933 160.659 168.802C160.659 167.671 161.374 167.008 162.258 167.008C163.142 167.008 163.844 167.671 163.844 168.802Z" fill="#101820"></path>
  <rect x="109.5" y="50.5" width="65" height="43" stroke="white" stroke-width="3"></rect>
  <rect x="133.5" y="93.5" width="18" height="16" stroke="white" stroke-width="3"></rect>
  <rect x="123" y="108" width="39" height="3" fill="white"></rect>
  <circle cx="142.5" cy="101.5" r="3" stroke="white" stroke-width="3"></circle>
  <path d="M132 66L126 72L132 78" stroke="#05D5FF" stroke-width="3"></path>
  <path d="M153 66L159 72L153 78" stroke="#05D5FF" stroke-width="3"></path>
  <rect x="147.201" y="60.8574" width="3" height="24" transform="rotate(30 147.201 60.8574)" fill="white"></rect>
  <circle cx="458.48" cy="75" r="75" fill="url(#paint4_linear_154_3643)"></circle>
  <path d="M433.293 172H435.243L431.733 162.783H429.653L426.117 172H428.015L428.782 169.894H432.526L433.293 172ZM430.654 164.772L431.928 168.256H429.38L430.654 164.772ZM440.287 172H441.938C441.912 171.779 441.873 171.337 441.873 170.843V165.604H440.144V169.322C440.144 170.063 439.702 170.583 438.935 170.583C438.129 170.583 437.765 170.011 437.765 169.296V165.604H436.036V169.647C436.036 171.038 436.92 172.169 438.467 172.169C439.143 172.169 439.884 171.909 440.235 171.311C440.235 171.571 440.261 171.87 440.287 172ZM445.891 163.693H444.331V164.59C444.331 165.162 444.019 165.604 443.343 165.604H443.018V167.138H444.175V170.115C444.175 171.35 444.955 172.091 446.203 172.091C446.71 172.091 447.022 172 447.178 171.935V170.505C447.087 170.531 446.853 170.557 446.645 170.557C446.151 170.557 445.891 170.375 445.891 169.816V167.138H447.178V165.604H445.891V163.693ZM451.468 170.622C450.623 170.622 449.843 169.998 449.843 168.802C449.843 167.593 450.623 166.982 451.468 166.982C452.313 166.982 453.093 167.593 453.093 168.802C453.093 170.011 452.313 170.622 451.468 170.622ZM451.468 165.409C449.557 165.409 448.114 166.826 448.114 168.802C448.114 170.765 449.557 172.195 451.468 172.195C453.379 172.195 454.822 170.765 454.822 168.802C454.822 166.826 453.379 165.409 451.468 165.409ZM465.691 164.98C465.483 163.94 464.625 162.588 462.389 162.588C460.647 162.588 459.178 163.836 459.178 165.474C459.178 166.865 460.127 167.814 461.596 168.113L462.883 168.373C463.598 168.516 464.001 168.932 464.001 169.465C464.001 170.115 463.468 170.596 462.506 170.596C461.206 170.596 460.569 169.777 460.491 168.867L458.827 169.309C458.97 170.622 460.049 172.195 462.493 172.195C464.638 172.195 465.821 170.765 465.821 169.348C465.821 168.048 464.924 166.956 463.247 166.631L461.96 166.384C461.284 166.254 460.959 165.851 460.959 165.344C460.959 164.733 461.531 164.174 462.402 164.174C463.572 164.174 463.988 164.967 464.079 165.474L465.691 164.98ZM470.194 167.008C471.052 167.008 471.455 167.554 471.611 168.087L473.158 167.567C472.885 166.488 471.897 165.409 470.155 165.409C468.296 165.409 466.84 166.826 466.84 168.802C466.84 170.765 468.322 172.195 470.207 172.195C471.91 172.195 472.911 171.103 473.197 170.037L471.676 169.53C471.533 170.024 471.091 170.609 470.207 170.609C469.323 170.609 468.569 169.959 468.569 168.802C468.569 167.645 469.31 167.008 470.194 167.008ZM474.076 170.258C474.076 171.259 474.908 172.182 476.273 172.182C477.222 172.182 477.833 171.74 478.158 171.233C478.158 171.48 478.184 171.831 478.223 172H479.809C479.77 171.779 479.731 171.324 479.731 170.986V167.84C479.731 166.553 478.977 165.409 476.949 165.409C475.233 165.409 474.31 166.514 474.206 167.515L475.74 167.84C475.792 167.281 476.208 166.8 476.962 166.8C477.69 166.8 478.041 167.177 478.041 167.632C478.041 167.853 477.924 168.035 477.56 168.087L475.987 168.321C474.921 168.477 474.076 169.114 474.076 170.258ZM476.637 170.895C476.078 170.895 475.805 170.531 475.805 170.154C475.805 169.66 476.156 169.413 476.598 169.348L478.041 169.127V169.413C478.041 170.544 477.365 170.895 476.637 170.895ZM483.177 168.321C483.177 167.58 483.619 166.995 484.373 166.995C485.205 166.995 485.556 167.554 485.556 168.269V172H487.285V167.97C487.285 166.566 486.557 165.435 484.971 165.435C484.282 165.435 483.515 165.734 483.125 166.397V165.604H481.448V172H483.177V168.321Z" fill="#101820"></path>
  <path d="M433.291 76.47C432.745 75.8921 432.297 75.3919 431.956 75C432.297 74.6081 432.745 74.1079 433.291 73.53C434.671 72.0692 436.667 70.1218 439.13 68.1774C444.095 64.2583 450.766 60.5 458 60.5C465.234 60.5 471.905 64.2583 476.87 68.1774C479.333 70.1218 481.329 72.0692 482.709 73.53C483.255 74.1079 483.703 74.6081 484.044 75C483.703 75.3919 483.255 75.8921 482.709 76.47C481.329 77.9308 479.333 79.8782 476.87 81.8226C471.905 85.7417 465.234 89.5 458 89.5C450.766 89.5 444.095 85.7417 439.13 81.8226C436.667 79.8782 434.671 77.9308 433.291 76.47Z" stroke="white" stroke-width="3"></path>
  <rect x="428" y="73" width="60" height="3" fill="white"></rect>
  <circle cx="458" cy="75" r="14.5" stroke="white" stroke-width="3"></circle>
  <path fill-rule="evenodd" clip-rule="evenodd" d="M440 45H431H428V48V57H431L431 48H440V45Z" fill="#05D5FF"></path>
  <path fill-rule="evenodd" clip-rule="evenodd" d="M440 105H431H428V102V93H431L431 102H440V105Z" fill="white"></path>
  <path fill-rule="evenodd" clip-rule="evenodd" d="M476 45H485H488V48V57H485L485 48H476V45Z" fill="white"></path>
  <path fill-rule="evenodd" clip-rule="evenodd" d="M476 105H485H488V102V93H485L485 102H476V105Z" fill="#05D5FF"></path>
  <circle cx="527.451" cy="316.996" r="75" fill="url(#paint5_linear_154_3643)"></circle>
  <path d="M512.511 411.634L510.106 404.783H508.143L511.549 414H513.395L516.814 404.783H514.916L512.511 411.634ZM518.311 410.074C518.35 409.489 518.844 408.813 519.741 408.813C520.729 408.813 521.145 409.437 521.171 410.074H518.311ZM521.34 411.738C521.132 412.31 520.69 412.713 519.884 412.713C519.026 412.713 518.311 412.102 518.272 411.257H522.848C522.848 411.231 522.874 410.971 522.874 410.724C522.874 408.67 521.691 407.409 519.715 407.409C518.077 407.409 516.569 408.735 516.569 410.776C516.569 412.934 518.116 414.195 519.871 414.195C521.444 414.195 522.458 413.272 522.783 412.167L521.34 411.738ZM528.171 407.578C528.041 407.565 527.911 407.552 527.768 407.552C527.222 407.552 526.338 407.708 525.948 408.553V407.604H524.271V414H526V411.075C526 409.697 526.767 409.268 527.651 409.268C527.807 409.268 527.976 409.281 528.171 409.32V407.578ZM531.04 414V407.604H529.311V414H531.04ZM529.103 405.511C529.103 406.083 529.584 406.564 530.169 406.564C530.767 406.564 531.235 406.083 531.235 405.511C531.235 404.913 530.767 404.432 530.169 404.432C529.584 404.432 529.103 404.913 529.103 405.511ZM536.013 406.018C536.299 406.018 536.468 406.057 536.559 406.083V404.627C536.416 404.562 536.065 404.497 535.701 404.497C534.284 404.497 533.374 405.433 533.374 406.876V407.604H532.308V409.086H533.374V414H535.116V409.086H536.559V407.604H535.116V406.902C535.116 406.187 535.623 406.018 536.013 406.018ZM540.004 416.522L544.021 407.604H542.175L540.602 411.348L538.899 407.604H536.962L539.679 413.194L538.171 416.522H540.004Z" fill="#101820"></path>
  <path d="M546.218 297.258C547.505 297.358 548.655 297.418 549.5 297.453V336.082L527.5 347.316L505.5 336.082V297.453C506.345 297.418 507.495 297.358 508.782 297.258C511.412 297.053 514.742 296.67 517.2 295.938C519.667 295.203 522.472 293.755 524.6 292.54C525.678 291.924 526.609 291.353 527.27 290.935C527.351 290.884 527.427 290.836 527.5 290.789C527.573 290.836 527.649 290.884 527.73 290.935C528.391 291.353 529.322 291.924 530.4 292.54C532.528 293.755 535.333 295.203 537.8 295.938C540.258 296.67 543.588 297.053 546.218 297.258Z" stroke="white" stroke-width="3"></path>
  <circle cx="527.5" cy="318.5" r="11" stroke="white" stroke-width="3"></circle>
  <path d="M522.5 319L526.484 322L532 315" stroke="#05D5FF" stroke-width="3"></path>
  <rect x="504" y="317" width="13" height="3" fill="white"></rect>
  <rect x="538" y="317" width="13" height="3" fill="white"></rect>
  <circle cx="300.875" cy="490.021" r="75" fill="url(#paint6_linear_154_3643)"></circle>
  <path d="M266.293 587H268.243L264.733 577.783H262.653L259.117 587H261.015L261.782 584.894H265.526L266.293 587ZM263.654 579.772L264.928 583.256H262.38L263.654 579.772ZM268.735 585.219C268.813 585.947 269.476 587.195 271.4 587.195C273.077 587.195 273.883 586.129 273.883 585.089C273.883 584.153 273.246 583.386 271.985 583.126L271.075 582.931C270.724 582.866 270.49 582.671 270.49 582.359C270.49 581.995 270.854 581.722 271.309 581.722C272.037 581.722 272.31 582.203 272.362 582.58L273.805 582.255C273.727 581.566 273.116 580.409 271.296 580.409C269.918 580.409 268.904 581.358 268.904 582.502C268.904 583.399 269.463 584.14 270.698 584.413L271.543 584.608C272.037 584.712 272.232 584.946 272.232 585.232C272.232 585.57 271.959 585.869 271.387 585.869C270.633 585.869 270.256 585.401 270.217 584.894L268.735 585.219ZM274.854 585.219C274.932 585.947 275.595 587.195 277.519 587.195C279.196 587.195 280.002 586.129 280.002 585.089C280.002 584.153 279.365 583.386 278.104 583.126L277.194 582.931C276.843 582.866 276.609 582.671 276.609 582.359C276.609 581.995 276.973 581.722 277.428 581.722C278.156 581.722 278.429 582.203 278.481 582.58L279.924 582.255C279.846 581.566 279.235 580.409 277.415 580.409C276.037 580.409 275.023 581.358 275.023 582.502C275.023 583.399 275.582 584.14 276.817 584.413L277.662 584.608C278.156 584.712 278.351 584.946 278.351 585.232C278.351 585.57 278.078 585.869 277.506 585.869C276.752 585.869 276.375 585.401 276.336 584.894L274.854 585.219ZM283.132 587V580.604H281.403V587H283.132ZM281.195 578.511C281.195 579.083 281.676 579.564 282.261 579.564C282.859 579.564 283.327 579.083 283.327 578.511C283.327 577.913 282.859 577.432 282.261 577.432C281.676 577.432 281.195 577.913 281.195 578.511ZM284.517 587.351C284.699 588.573 285.869 589.665 287.624 589.665C290.029 589.665 290.978 588.066 290.978 586.311V580.604H289.314V581.358C289.093 580.929 288.508 580.487 287.494 580.487C285.739 580.487 284.517 581.917 284.517 583.607C284.517 585.401 285.791 586.714 287.494 586.714C288.417 586.714 289.015 586.311 289.275 585.895V586.363C289.275 587.598 288.664 588.144 287.572 588.144C286.753 588.144 286.194 587.637 286.077 586.935L284.517 587.351ZM287.793 585.232C286.896 585.232 286.259 584.608 286.259 583.607C286.259 582.619 286.935 581.995 287.793 581.995C288.625 581.995 289.301 582.619 289.301 583.607C289.301 584.595 288.677 585.232 287.793 585.232ZM294.468 583.321C294.468 582.58 294.91 581.995 295.664 581.995C296.496 581.995 296.847 582.554 296.847 583.269V587H298.576V582.97C298.576 581.566 297.848 580.435 296.262 580.435C295.573 580.435 294.806 580.734 294.416 581.397V580.604H292.739V587H294.468V583.321ZM305.386 578.693H303.826V579.59C303.826 580.162 303.514 580.604 302.838 580.604H302.513V582.138H303.67V585.115C303.67 586.35 304.45 587.091 305.698 587.091C306.205 587.091 306.517 587 306.673 586.935V585.505C306.582 585.531 306.348 585.557 306.14 585.557C305.646 585.557 305.386 585.375 305.386 584.816V582.138H306.673V580.604H305.386V578.693ZM310.963 585.622C310.118 585.622 309.338 584.998 309.338 583.802C309.338 582.593 310.118 581.982 310.963 581.982C311.808 581.982 312.588 582.593 312.588 583.802C312.588 585.011 311.808 585.622 310.963 585.622ZM310.963 580.409C309.052 580.409 307.609 581.826 307.609 583.802C307.609 585.765 309.052 587.195 310.963 587.195C312.874 587.195 314.317 585.765 314.317 583.802C314.317 581.826 312.874 580.409 310.963 580.409ZM320.767 585.336V579.447H322.21C323.718 579.447 324.966 580.396 324.966 582.398C324.966 584.4 323.705 585.336 322.197 585.336H320.767ZM322.262 587C324.888 587 326.825 585.31 326.825 582.398C326.825 579.486 324.901 577.783 322.275 577.783H318.973V587H322.262ZM329.639 583.074C329.678 582.489 330.172 581.813 331.069 581.813C332.057 581.813 332.473 582.437 332.499 583.074H329.639ZM332.668 584.738C332.46 585.31 332.018 585.713 331.212 585.713C330.354 585.713 329.639 585.102 329.6 584.257H334.176C334.176 584.231 334.202 583.971 334.202 583.724C334.202 581.67 333.019 580.409 331.043 580.409C329.405 580.409 327.897 581.735 327.897 583.776C327.897 585.934 329.444 587.195 331.199 587.195C332.772 587.195 333.786 586.272 334.111 585.167L332.668 584.738ZM341.48 580.604H339.66L338.139 584.894L336.553 580.604H334.655L337.268 587H338.997L341.48 580.604Z" fill="#101820"></path>
  <rect x="270.5" y="464.5" width="61" height="50" stroke="white" stroke-width="3"></rect>
  <rect x="269" y="473" width="64" height="3" fill="white"></rect>
  <rect x="274" y="468" width="3" height="3" fill="white"></rect>
  <rect x="279" y="468" width="3" height="3" fill="white"></rect>
  <rect x="284" y="468" width="3" height="3" fill="white"></rect>
  <rect x="325" y="468" width="3" height="3" fill="white"></rect>
  <rect x="278.5" y="482.5" width="9" height="9" stroke="#05D5FF" stroke-width="3"></rect>
  <rect x="292" y="481" width="27" height="3" fill="white"></rect>
  <rect x="292" y="487" width="12" height="3" fill="white"></rect>
  <rect x="278.5" y="497.5" width="9" height="9" stroke="#05D5FF" stroke-width="3"></rect>
  <rect x="292" y="496" width="27" height="3" fill="white"></rect>
  <rect x="292" y="502" width="20" height="3" fill="white"></rect>
  <defs>
    <linearGradient id="paint0_linear_154_3643" x1="265.262" y1="126.511" x2="257.482" y2="223.189" gradientUnits="userSpaceOnUse">
      <stop stop-color="#CC8BDB"></stop>
      <stop offset="1" stop-color="#CC8BDB" stop-opacity="0"></stop>
    </linearGradient>
    <linearGradient id="paint1_linear_154_3643" x1="226.434" y1="386.518" x2="370.303" y2="240.042" gradientUnits="userSpaceOnUse">
      <stop stop-color="#CC8BDB"></stop>
      <stop offset="1" stop-color="#CC8BDB" stop-opacity="0"></stop>
    </linearGradient>
    <linearGradient id="paint2_linear_154_3643" x1="0.570315" y1="391.996" x2="175.091" y2="353.678" gradientUnits="userSpaceOnUse">
      <stop stop-color="#172331"></stop>
      <stop offset="0.49846" stop-color="#2F3646"></stop>
      <stop offset="1" stop-color="#5E5B6D"></stop>
    </linearGradient>
    <linearGradient id="paint3_linear_154_3643" x1="66.998" y1="150" x2="241.519" y2="111.682" gradientUnits="userSpaceOnUse">
      <stop stop-color="#172331"></stop>
      <stop offset="0.49846" stop-color="#2F3646"></stop>
      <stop offset="1" stop-color="#5E5B6D"></stop>
    </linearGradient>
    <linearGradient id="paint4_linear_154_3643" x1="383.48" y1="150" x2="558.001" y2="111.682" gradientUnits="userSpaceOnUse">
      <stop stop-color="#172331"></stop>
      <stop offset="0.49846" stop-color="#2F3646"></stop>
      <stop offset="1" stop-color="#5E5B6D"></stop>
    </linearGradient>
    <linearGradient id="paint5_linear_154_3643" x1="452.451" y1="391.996" x2="626.972" y2="353.678" gradientUnits="userSpaceOnUse">
      <stop stop-color="#172331"></stop>
      <stop offset="0.49846" stop-color="#2F3646"></stop>
      <stop offset="1" stop-color="#5E5B6D"></stop>
    </linearGradient>
    <linearGradient id="paint6_linear_154_3643" x1="225.875" y1="565.021" x2="400.396" y2="526.703" gradientUnits="userSpaceOnUse">
      <stop stop-color="#172331"></stop>
      <stop offset="0.49846" stop-color="#2F3646"></stop>
      <stop offset="1" stop-color="#5E5B6D"></stop>
    </linearGradient>
  </defs>
</svg>
