<svg width="96" height="96" viewBox="0 0 96 96" fill="none" xmlns="http://www.w3.org/2000/svg">
<g clip-path="url(#clip0_203_7436)">
<path fill-rule="evenodd" clip-rule="evenodd" d="M47.75 0H50.5V1.375H68.375V6.875H82.125L76.9 13.75L82.125 20.625H62.875V15.125H50.5V20.625H47.75V15.125V1.375V0ZM50.5 12.375H62.875H65.625V9.625V6.875V4.125H50.5V12.375ZM65.625 15.125V17.875H76.625L73.6 13.75L76.625 9.625H68.375V15.125H65.625Z" fill="#50C3FC"/>
<path d="M31.25 77H28.5V72.875C28.5 69.85 30.975 67.375 34 67.375H45V70.125H34C32.4875 70.125 31.25 71.3625 31.25 72.875V77Z" fill="white"/>
<path d="M68.375 77H65.625V72.875C65.625 71.3625 64.3875 70.125 62.875 70.125H56V67.375H62.875C65.9 67.375 68.375 69.85 68.375 72.875V77Z" fill="white"/>
<path d="M73.875 88H23V81.125C23 78.1 25.475 75.625 28.5 75.625H49.125V78.375H28.5C26.9875 78.375 25.75 79.6125 25.75 81.125V85.25H71.125V81.125C71.125 79.6125 69.8875 78.375 68.375 78.375H58.75V75.625H68.375C71.4 75.625 73.875 78.1 73.875 81.125V88Z" fill="white"/>
<path d="M62.875 68.75H60.125V47.4375L67.825 40.975C68.1 40.7 68.375 40.2875 68.375 39.875V26.125H61.5V33H51.875V26.125H45V33H35.375V26.125H28.5V40.0125C28.5 40.425 28.6375 40.8375 29.05 41.1125L36.75 47.575V68.75H34V48.8125L27.2625 43.175C26.3 42.35 25.75 41.25 25.75 40.0125V23.375H38.125V30.25H42.25V23.375H54.625V30.25H58.75V23.375H71.125V40.0125C71.125 41.25 70.575 42.35 69.6125 43.175L62.875 48.8125V68.75Z" fill="white"/>
<path d="M68.375 38.5H60.125V41.25H68.375V38.5Z" fill="white"/>
<path d="M54.625 38.5H51.875V41.25H54.625V38.5Z" fill="white"/>
<path d="M49.125 38.5H28.5V41.25H49.125V38.5Z" fill="white"/>
<path d="M54.625 75.625H51.875V78.375H54.625V75.625Z" fill="white"/>
<path d="M42.25 46.75H39.5V64.625H42.25V46.75Z" fill="white"/>
<path d="M50.5 67.375H47.75V70.125H50.5V67.375Z" fill="white"/>
</g>
<defs>
<clipPath id="clip0_203_7436">
<rect width="96" height="96" fill="white"/>
</clipPath>
</defs>
</svg>
