<svg width="96" height="96" viewBox="0 0 96 96" fill="none" xmlns="http://www.w3.org/2000/svg">
<g clip-path="url(#clip0_203_7483)">
<path d="M29.98 80.3923L21.22 71.5859V65.1131C21.22 61.8694 23.8334 59.2422 27.06 59.2422H29.98V62.1776H27.06C25.454 62.1776 24.14 63.4986 24.14 65.1131V70.3823L29.98 76.2533L31.44 74.7855V72.4812L34.36 68.988V57.7744H37.28V70.0447L34.36 73.538V75.9891L29.98 80.3923Z" fill="white"/>
<path d="M27.06 37.2256H23.5414L20.1834 33.8645L22.2566 31.7803L24.7386 34.2901H27.06V37.2256Z" fill="white"/>
<path d="M25.6 57.7744H19.1614L12.898 51.4778L14.9566 49.4082L20.3732 54.8536H22.6946V49.8486L29.396 43.1116H32.9146V40.1761C32.9146 38.5616 31.6006 37.2407 29.9946 37.2407V34.3052C33.2212 34.3052 35.8346 36.9324 35.8346 40.1761V46.0471H30.5932L25.6146 51.0521V57.789L25.6 57.7744Z" fill="white"/>
<path d="M64.1586 38.6937H62.1V35.7582H62.9614L65.8814 32.8228H73.78V35.7582H67.0786L64.1586 38.6937Z" fill="white"/>
<path d="M77.3132 57.7744H69.4V53.6941L62.8446 47.5002H50.42V43.097C50.42 39.0607 53.6904 35.773 57.72 35.7583L57.7638 38.6938C55.3256 38.6938 53.34 40.6752 53.34 43.097V44.5648H64.0126L72.32 52.4318V54.8389H76.0868L80.0142 50.8614L82.0874 52.9309L77.3132 57.7598V57.7744ZM57.7638 38.6938L57.72 35.7583H57.7638V38.6938Z" fill="white"/>
<path d="M60.7276 78.3226H53.34V66.6541L50.4784 63.6452H44.58V51.9033H47.5V60.7097H51.7194L56.26 65.4799V75.3872H59.4574L63.56 70.9105V58.376L58.5814 53.371H50.42V50.4355H59.7786L66.48 57.1725V72.0554L60.7276 78.3226Z" fill="white"/>
<path d="M47.5 93.0001C27.3666 93.0001 11 76.5467 11 56.3066C11 45.1077 15.9932 34.6721 24.6802 27.6562L26.5052 29.9459C18.5044 36.3893 13.92 46.003 13.92 56.3066C13.92 74.9175 28.9872 90.0646 47.5 90.0646C66.0128 90.0646 81.08 74.9175 81.08 56.3066C81.08 50.5824 79.6346 44.9316 76.8898 39.9559L79.4448 38.5322C82.4232 43.9335 84 50.0833 84 56.3066C84 76.5467 67.6334 93.0001 47.5 93.0001Z" fill="white"/>
<path d="M68.4948 29.9606C66.3486 28.2287 63.998 26.7756 61.5014 25.6161L62.7132 22.9448C65.4288 24.1924 67.9838 25.7922 70.3198 27.671L68.4948 29.9606Z" fill="white"/>
<path d="M34.9148 24.9994L33.8198 22.2841C38.1706 20.5081 42.7696 19.6128 47.5146 19.6128C49.5586 19.6128 51.6026 19.7889 53.5882 20.1265L53.1064 23.018C51.2814 22.7097 49.398 22.5483 47.5146 22.5483C43.1638 22.5483 38.9152 23.3702 34.9294 24.9994H34.9148Z" fill="white"/>
<path d="M31.44 16.6772H28.52V37.2256H31.44V16.6772Z" fill="white"/>
<path d="M47.5 35.7583H44.58V51.9035H47.5V35.7583Z" fill="white"/>
<path d="M59.18 12.2744H56.26V38.6938H59.18V12.2744Z" fill="white"/>
<path d="M35.82 60.7097C32.5934 60.7097 29.98 58.0825 29.98 54.8387C29.98 51.595 32.5934 48.9678 35.82 48.9678C39.0466 48.9678 41.66 51.595 41.66 54.8387C41.66 58.0825 39.0466 60.7097 35.82 60.7097ZM35.82 51.9033C34.214 51.9033 32.9 53.2242 32.9 54.8387C32.9 56.4533 34.214 57.7742 35.82 57.7742C37.426 57.7742 38.74 56.4533 38.74 54.8387C38.74 53.2242 37.426 51.9033 35.82 51.9033Z" fill="#50C3FC"/>
<path d="M46.04 37.2258C42.8134 37.2258 40.2 34.5986 40.2 31.3549C40.2 28.1111 42.8134 25.4839 46.04 25.4839C49.2666 25.4839 51.88 28.1111 51.88 31.3549C51.88 34.5986 49.2666 37.2258 46.04 37.2258ZM46.04 28.4194C44.434 28.4194 43.12 29.7403 43.12 31.3549C43.12 32.9694 44.434 34.2903 46.04 34.2903C47.646 34.2903 48.96 32.9694 48.96 31.3549C48.96 29.7403 47.646 28.4194 46.04 28.4194Z" fill="#50C3FC"/>
<path d="M75.24 19.6128H72.32V35.758H75.24V19.6128Z" fill="white"/>
<path d="M73.78 21.0808C70.5534 21.0808 67.94 18.4535 67.94 15.2098C67.94 11.9661 70.5534 9.33887 73.78 9.33887C77.0066 9.33887 79.62 11.9661 79.62 15.2098C79.62 18.4535 77.0066 21.0808 73.78 21.0808ZM73.78 12.2744C72.174 12.2744 70.86 13.5953 70.86 15.2098C70.86 16.8244 72.174 18.1453 73.78 18.1453C75.386 18.1453 76.7 16.8244 76.7 15.2098C76.7 13.5953 75.386 12.2744 73.78 12.2744Z" fill="#50C3FC"/>
<path d="M57.72 13.7419C54.4934 13.7419 51.88 11.1147 51.88 7.87097C51.88 4.62726 54.4934 2 57.72 2C60.9466 2 63.56 4.62726 63.56 7.87097C63.56 11.1147 60.9466 13.7419 57.72 13.7419ZM57.72 4.93548C56.114 4.93548 54.8 6.25645 54.8 7.87097C54.8 9.48548 56.114 10.8065 57.72 10.8065C59.326 10.8065 60.64 9.48548 60.64 7.87097C60.64 6.25645 59.326 4.93548 57.72 4.93548Z" fill="#50C3FC"/>
<path d="M29.98 18.1453C26.7534 18.1453 24.14 15.518 24.14 12.2743C24.14 9.03058 26.7534 6.40332 29.98 6.40332C33.2066 6.40332 35.82 9.03058 35.82 12.2743C35.82 15.518 33.2066 18.1453 29.98 18.1453ZM29.98 9.3388C28.374 9.3388 27.06 10.6598 27.06 12.2743C27.06 13.8888 28.374 15.2098 29.98 15.2098C31.586 15.2098 32.9 13.8888 32.9 12.2743C32.9 10.6598 31.586 9.3388 29.98 9.3388Z" fill="#50C3FC"/>
</g>
<defs>
<clipPath id="clip0_203_7483">
<rect width="73" height="91" fill="white" transform="translate(11 2)"/>
</clipPath>
</defs>
</svg>
