<?xml version="1.0" encoding="UTF-8"?>
<svg xmlns="http://www.w3.org/2000/svg" width="701" height="567" viewBox="0 0 701 567" fill="none">
  <rect x="513.5" y="468.5" width="157" height="98" fill="white" stroke="#D9D8D6"></rect>
  <rect x="513" y="468" width="158" height="19" fill="#7A2582"></rect>
  <rect x="573" y="473" width="94" height="9" fill="#CC8BDB"></rect>
  <rect x="518.5" y="474.5" width="6" height="6" stroke="#CC8BDB" stroke-width="3"></rect>
  <rect x="529.5" y="474.5" width="6" height="6" stroke="#CC8BDB" stroke-width="3"></rect>
  <rect x="522.5" y="497.5" width="62" height="34" fill="#FAF9F7" stroke="#D9D8D6"></rect>
  <rect x="522.5" y="536.5" width="34" height="19" fill="#FAF9F7" stroke="#D9D8D6"></rect>
  <rect x="560.5" y="536.5" width="34" height="19" fill="#FAF9F7" stroke="#D9D8D6"></rect>
  <rect x="598.5" y="536.5" width="34" height="19" fill="#FAF9F7" stroke="#D9D8D6"></rect>
  <rect x="591" y="505" width="44" height="4" fill="#FF8001"></rect>
  <rect x="591" y="512" width="21" height="4" fill="#FF8001"></rect>
  <rect x="591" y="519" width="31" height="4" fill="#FF8001"></rect>
  <rect x="636" y="536" width="14" height="3" fill="#FF8001"></rect>
  <rect x="636" y="541" width="26" height="3" fill="#FF8001"></rect>
  <rect x="636" y="546" width="9" height="3" fill="#FF8001"></rect>
  <path d="M559 514L550 519.196L550 508.804L559 514Z" fill="#591769"></path>
  <rect opacity="0.8" x="513" y="468" width="158" height="99" fill="#FAF9F7"></rect>
  <rect x="513.5" y="161.5" width="157" height="98" fill="white" stroke="#D9D8D6"></rect>
  <rect x="513" y="161" width="158" height="19" fill="#7A2582"></rect>
  <rect x="573" y="166" width="94" height="9" fill="#CC8BDB"></rect>
  <rect x="518.5" y="167.5" width="6" height="6" stroke="#CC8BDB" stroke-width="3"></rect>
  <rect x="529.5" y="167.5" width="6" height="6" stroke="#CC8BDB" stroke-width="3"></rect>
  <rect x="522.5" y="190.5" width="62" height="34" fill="#FAF9F7" stroke="#D9D8D6"></rect>
  <rect x="522.5" y="229.5" width="34" height="19" fill="#FAF9F7" stroke="#D9D8D6"></rect>
  <rect x="560.5" y="229.5" width="34" height="19" fill="#FAF9F7" stroke="#D9D8D6"></rect>
  <rect x="598.5" y="229.5" width="34" height="19" fill="#FAF9F7" stroke="#D9D8D6"></rect>
  <rect x="591" y="198" width="44" height="4" fill="#FF8001"></rect>
  <rect x="591" y="205" width="21" height="4" fill="#FF8001"></rect>
  <rect x="591" y="212" width="31" height="4" fill="#FF8001"></rect>
  <rect x="636" y="229" width="14" height="3" fill="#FF8001"></rect>
  <rect x="636" y="234" width="26" height="3" fill="#FF8001"></rect>
  <rect x="636" y="239" width="9" height="3" fill="#FF8001"></rect>
  <path d="M559 207L550 212.196L550 201.804L559 207Z" fill="#591769"></path>
  <rect opacity="0.8" x="513" y="161" width="158" height="99" fill="#FAF9F7"></rect>
  <rect x="513.5" y="392.5" width="157" height="98" fill="white" stroke="#D9D8D6"></rect>
  <rect x="513" y="392" width="158" height="19" fill="#7A2582"></rect>
  <rect x="573" y="397" width="94" height="9" fill="#CC8BDB"></rect>
  <rect x="518.5" y="398.5" width="6" height="6" stroke="#CC8BDB" stroke-width="3"></rect>
  <rect x="529.5" y="398.5" width="6" height="6" stroke="#CC8BDB" stroke-width="3"></rect>
  <rect x="522.5" y="421.5" width="62" height="34" fill="#FAF9F7" stroke="#D9D8D6"></rect>
  <rect x="522.5" y="460.5" width="34" height="19" fill="#FAF9F7" stroke="#D9D8D6"></rect>
  <rect x="560.5" y="460.5" width="34" height="19" fill="#FAF9F7" stroke="#D9D8D6"></rect>
  <rect x="598.5" y="460.5" width="34" height="19" fill="#FAF9F7" stroke="#D9D8D6"></rect>
  <rect x="591" y="429" width="44" height="4" fill="#FF8001"></rect>
  <rect x="591" y="436" width="21" height="4" fill="#FF8001"></rect>
  <rect x="591" y="443" width="31" height="4" fill="#FF8001"></rect>
  <rect x="636" y="460" width="14" height="3" fill="#FF8001"></rect>
  <rect x="636" y="465" width="26" height="3" fill="#FF8001"></rect>
  <rect x="636" y="470" width="9" height="3" fill="#FF8001"></rect>
  <path d="M559 438L550 443.196L550 432.804L559 438Z" fill="#591769"></path>
  <rect opacity="0.5" x="513" y="392" width="158" height="99" fill="#FAF9F7"></rect>
  <rect x="513.5" y="237.5" width="157" height="98" fill="white" stroke="#D9D8D6"></rect>
  <rect x="513" y="237" width="158" height="19" fill="#7A2582"></rect>
  <rect x="573" y="242" width="94" height="9" fill="#CC8BDB"></rect>
  <rect x="518.5" y="243.5" width="6" height="6" stroke="#CC8BDB" stroke-width="3"></rect>
  <rect x="529.5" y="243.5" width="6" height="6" stroke="#CC8BDB" stroke-width="3"></rect>
  <rect x="522.5" y="266.5" width="62" height="34" fill="#FAF9F7" stroke="#D9D8D6"></rect>
  <rect x="522.5" y="305.5" width="34" height="19" fill="#FAF9F7" stroke="#D9D8D6"></rect>
  <rect x="560.5" y="305.5" width="34" height="19" fill="#FAF9F7" stroke="#D9D8D6"></rect>
  <rect x="598.5" y="305.5" width="34" height="19" fill="#FAF9F7" stroke="#D9D8D6"></rect>
  <rect x="591" y="274" width="44" height="4" fill="#FF8001"></rect>
  <rect x="591" y="281" width="21" height="4" fill="#FF8001"></rect>
  <rect x="591" y="288" width="31" height="4" fill="#FF8001"></rect>
  <rect x="636" y="305" width="14" height="3" fill="#FF8001"></rect>
  <rect x="636" y="310" width="26" height="3" fill="#FF8001"></rect>
  <rect x="636" y="315" width="9" height="3" fill="#FF8001"></rect>
  <path d="M559 283L550 288.196L550 277.804L559 283Z" fill="#591769"></path>
  <rect opacity="0.5" x="513" y="237" width="158" height="99" fill="#FAF9F7"></rect>
  <g filter="url(#filter0_d_154_3194)">
    <rect x="513" y="313" width="158" height="99" fill="white"></rect>
    <rect x="513" y="313" width="158" height="19" fill="#7A2582"></rect>
    <rect x="573" y="318" width="94" height="9" fill="#CC8BDB"></rect>
    <rect x="518.5" y="319.5" width="6" height="6" stroke="#CC8BDB" stroke-width="3"></rect>
    <rect x="529.5" y="319.5" width="6" height="6" stroke="#CC8BDB" stroke-width="3"></rect>
    <rect x="522.5" y="342.5" width="62" height="34" fill="#FAF9F7" stroke="#D9D8D6"></rect>
    <rect x="522.5" y="381.5" width="34" height="19" fill="#FAF9F7" stroke="#D9D8D6"></rect>
    <rect x="560.5" y="381.5" width="34" height="19" fill="#FAF9F7" stroke="#D9D8D6"></rect>
    <rect x="598.5" y="381.5" width="34" height="19" fill="#FAF9F7" stroke="#D9D8D6"></rect>
    <rect x="591" y="350" width="44" height="4" fill="#FF8001"></rect>
    <rect x="591" y="357" width="21" height="4" fill="#FF8001"></rect>
    <rect x="591" y="364" width="31" height="4" fill="#FF8001"></rect>
    <rect x="636" y="381" width="14" height="3" fill="#FF8001"></rect>
    <rect x="636" y="386" width="26" height="3" fill="#FF8001"></rect>
    <rect x="636" y="391" width="9" height="3" fill="#FF8001"></rect>
    <path d="M559 359L550 364.196L550 353.804L559 359Z" fill="#591769"></path>
  </g>
  <rect x="277.5" y="392.5" width="157" height="98" fill="white" stroke="#D9D8D6"></rect>
  <rect x="277" y="392" width="158" height="19" fill="#7A2582"></rect>
  <rect x="337" y="397" width="94" height="9" fill="#CC8BDB"></rect>
  <rect x="282.5" y="398.5" width="6" height="6" stroke="#CC8BDB" stroke-width="3"></rect>
  <rect x="293.5" y="398.5" width="6" height="6" stroke="#CC8BDB" stroke-width="3"></rect>
  <rect x="286.5" y="421.5" width="62" height="34" fill="#FAF9F7" stroke="#D9D8D6"></rect>
  <rect x="286.5" y="460.5" width="34" height="19" fill="#FAF9F7" stroke="#D9D8D6"></rect>
  <rect x="324.5" y="460.5" width="34" height="19" fill="#FAF9F7" stroke="#D9D8D6"></rect>
  <rect x="362.5" y="460.5" width="34" height="19" fill="#FAF9F7" stroke="#D9D8D6"></rect>
  <rect x="355" y="429" width="44" height="4" fill="#FF8001"></rect>
  <rect x="355" y="436" width="21" height="4" fill="#FF8001"></rect>
  <rect x="355" y="443" width="31" height="4" fill="#FF8001"></rect>
  <rect x="400" y="460" width="14" height="3" fill="#FF8001"></rect>
  <rect x="400" y="465" width="26" height="3" fill="#FF8001"></rect>
  <rect x="400" y="470" width="9" height="3" fill="#FF8001"></rect>
  <path d="M323 438L314 443.196L314 432.804L323 438Z" fill="#591769"></path>
  <rect opacity="0.5" x="277" y="392" width="158" height="99" fill="#FAF9F7"></rect>
  <rect x="277.5" y="237.5" width="157" height="98" fill="white" stroke="#D9D8D6"></rect>
  <rect x="277" y="237" width="158" height="19" fill="#7A2582"></rect>
  <rect x="337" y="242" width="94" height="9" fill="#CC8BDB"></rect>
  <rect x="282.5" y="243.5" width="6" height="6" stroke="#CC8BDB" stroke-width="3"></rect>
  <rect x="293.5" y="243.5" width="6" height="6" stroke="#CC8BDB" stroke-width="3"></rect>
  <rect x="286.5" y="266.5" width="62" height="34" fill="#FAF9F7" stroke="#D9D8D6"></rect>
  <rect x="286.5" y="305.5" width="34" height="19" fill="#FAF9F7" stroke="#D9D8D6"></rect>
  <rect x="324.5" y="305.5" width="34" height="19" fill="#FAF9F7" stroke="#D9D8D6"></rect>
  <rect x="362.5" y="305.5" width="34" height="19" fill="#FAF9F7" stroke="#D9D8D6"></rect>
  <rect x="355" y="274" width="44" height="4" fill="#FF8001"></rect>
  <rect x="355" y="281" width="21" height="4" fill="#FF8001"></rect>
  <rect x="355" y="288" width="31" height="4" fill="#FF8001"></rect>
  <rect x="400" y="305" width="14" height="3" fill="#FF8001"></rect>
  <rect x="400" y="310" width="26" height="3" fill="#FF8001"></rect>
  <rect x="400" y="315" width="9" height="3" fill="#FF8001"></rect>
  <path d="M323 283L314 288.196L314 277.804L323 283Z" fill="#591769"></path>
  <rect opacity="0.5" x="277" y="237" width="158" height="99" fill="#FAF9F7"></rect>
  <g filter="url(#filter1_d_154_3194)">
    <rect x="277" y="313" width="158" height="99" fill="white"></rect>
    <rect x="277" y="313" width="158" height="19" fill="#7A2582"></rect>
    <rect x="337" y="318" width="94" height="9" fill="#CC8BDB"></rect>
    <rect x="282.5" y="319.5" width="6" height="6" stroke="#CC8BDB" stroke-width="3"></rect>
    <rect x="293.5" y="319.5" width="6" height="6" stroke="#CC8BDB" stroke-width="3"></rect>
    <rect x="286.5" y="342.5" width="62" height="34" fill="#FAF9F7" stroke="#D9D8D6"></rect>
    <rect x="286.5" y="381.5" width="34" height="19" fill="#FAF9F7" stroke="#D9D8D6"></rect>
    <rect x="324.5" y="381.5" width="34" height="19" fill="#FAF9F7" stroke="#D9D8D6"></rect>
    <rect x="362.5" y="381.5" width="34" height="19" fill="#FAF9F7" stroke="#D9D8D6"></rect>
    <rect x="355" y="350" width="44" height="4" fill="#FF8001"></rect>
    <rect x="355" y="357" width="21" height="4" fill="#FF8001"></rect>
    <rect x="355" y="364" width="31" height="4" fill="#FF8001"></rect>
    <rect x="400" y="381" width="14" height="3" fill="#FF8001"></rect>
    <rect x="400" y="386" width="26" height="3" fill="#FF8001"></rect>
    <rect x="400" y="391" width="9" height="3" fill="#FF8001"></rect>
    <path d="M323 359L314 364.196L314 353.804L323 359Z" fill="#591769"></path>
  </g>
  <g filter="url(#filter2_d_154_3194)">
    <rect x="40" y="313" width="158" height="99" fill="white"></rect>
    <rect x="40" y="313" width="158" height="19" fill="#7A2582"></rect>
    <rect x="100" y="318" width="94" height="9" fill="#CC8BDB"></rect>
    <rect x="45.5" y="319.5" width="6" height="6" stroke="#CC8BDB" stroke-width="3"></rect>
    <rect x="56.5" y="319.5" width="6" height="6" stroke="#CC8BDB" stroke-width="3"></rect>
    <rect x="49.5" y="342.5" width="62" height="34" fill="#FAF9F7" stroke="#D9D8D6"></rect>
    <rect x="49.5" y="381.5" width="34" height="19" fill="#FAF9F7" stroke="#D9D8D6"></rect>
    <rect x="87.5" y="381.5" width="34" height="19" fill="#FAF9F7" stroke="#D9D8D6"></rect>
    <rect x="125.5" y="381.5" width="34" height="19" fill="#FAF9F7" stroke="#D9D8D6"></rect>
    <rect x="118" y="350" width="44" height="4" fill="#FF8001"></rect>
    <rect x="118" y="357" width="21" height="4" fill="#FF8001"></rect>
    <rect x="118" y="364" width="31" height="4" fill="#FF8001"></rect>
    <rect x="163" y="381" width="14" height="3" fill="#FF8001"></rect>
    <rect x="163" y="386" width="26" height="3" fill="#FF8001"></rect>
    <rect x="163" y="391" width="9" height="3" fill="#FF8001"></rect>
    <path d="M86 359L77 364.196L77 353.804L86 359Z" fill="#591769"></path>
  </g>
  <g opacity="0.5">
    <circle cx="592.5" cy="42.5" r="41.5" stroke="#D9D8D6" stroke-width="2"></circle>
    <rect x="591" y="83" width="2" height="78" fill="url(#paint0_linear_154_3194)"></rect>
  </g>
  <path d="M592 33L602 51H582L592 33Z" fill="white"></path>
  <g opacity="0.5">
    <circle cx="357.5" cy="118.5" r="41.5" stroke="#D9D8D6" stroke-width="2"></circle>
    <rect x="356" y="159" width="2" height="78" fill="url(#paint1_linear_154_3194)"></rect>
  </g>
  <path d="M357 109L367 127H347L357 109Z" fill="white"></path>
  <g opacity="0.5">
    <circle cx="120.5" cy="194.5" r="41.5" stroke="#D9D8D6" stroke-width="2"></circle>
    <rect x="119" y="235" width="2" height="78" fill="url(#paint2_linear_154_3194)"></rect>
  </g>
  <path d="M120 185L130 203H110L120 185Z" fill="white"></path>
  <defs>
    <filter id="filter0_d_154_3194" x="483" y="297" width="218" height="159" filterUnits="userSpaceOnUse" color-interpolation-filters="sRGB">
      <feFlood flood-opacity="0" result="BackgroundImageFix"></feFlood>
      <feColorMatrix in="SourceAlpha" type="matrix" values="0 0 0 0 0 0 0 0 0 0 0 0 0 0 0 0 0 0 127 0" result="hardAlpha"></feColorMatrix>
      <feOffset dy="14"></feOffset>
      <feGaussianBlur stdDeviation="15"></feGaussianBlur>
      <feComposite in2="hardAlpha" operator="out"></feComposite>
      <feColorMatrix type="matrix" values="0 0 0 0 0 0 0 0 0 0 0 0 0 0 0 0 0 0 0.25 0"></feColorMatrix>
      <feBlend mode="normal" in2="BackgroundImageFix" result="effect1_dropShadow_154_3194"></feBlend>
      <feBlend mode="normal" in="SourceGraphic" in2="effect1_dropShadow_154_3194" result="shape"></feBlend>
    </filter>
    <filter id="filter1_d_154_3194" x="247" y="297" width="218" height="159" filterUnits="userSpaceOnUse" color-interpolation-filters="sRGB">
      <feFlood flood-opacity="0" result="BackgroundImageFix"></feFlood>
      <feColorMatrix in="SourceAlpha" type="matrix" values="0 0 0 0 0 0 0 0 0 0 0 0 0 0 0 0 0 0 127 0" result="hardAlpha"></feColorMatrix>
      <feOffset dy="14"></feOffset>
      <feGaussianBlur stdDeviation="15"></feGaussianBlur>
      <feComposite in2="hardAlpha" operator="out"></feComposite>
      <feColorMatrix type="matrix" values="0 0 0 0 0 0 0 0 0 0 0 0 0 0 0 0 0 0 0.3 0"></feColorMatrix>
      <feBlend mode="normal" in2="BackgroundImageFix" result="effect1_dropShadow_154_3194"></feBlend>
      <feBlend mode="normal" in="SourceGraphic" in2="effect1_dropShadow_154_3194" result="shape"></feBlend>
    </filter>
    <filter id="filter2_d_154_3194" x="0" y="297" width="218" height="159" filterUnits="userSpaceOnUse" color-interpolation-filters="sRGB">
      <feFlood flood-opacity="0" result="BackgroundImageFix"></feFlood>
      <feColorMatrix in="SourceAlpha" type="matrix" values="0 0 0 0 0 0 0 0 0 0 0 0 0 0 0 0 0 0 127 0" result="hardAlpha"></feColorMatrix>
      <feOffset dx="-10" dy="14"></feOffset>
      <feGaussianBlur stdDeviation="15"></feGaussianBlur>
      <feComposite in2="hardAlpha" operator="out"></feComposite>
      <feColorMatrix type="matrix" values="0 0 0 0 0 0 0 0 0 0 0 0 0 0 0 0 0 0 0.08 0"></feColorMatrix>
      <feBlend mode="normal" in2="BackgroundImageFix" result="effect1_dropShadow_154_3194"></feBlend>
      <feBlend mode="normal" in="SourceGraphic" in2="effect1_dropShadow_154_3194" result="shape"></feBlend>
    </filter>
    <linearGradient id="paint0_linear_154_3194" x1="592" y1="83" x2="592" y2="161" gradientUnits="userSpaceOnUse">
      <stop stop-color="#D9D8D6"></stop>
      <stop offset="1" stop-color="#D9D8D6" stop-opacity="0"></stop>
    </linearGradient>
    <linearGradient id="paint1_linear_154_3194" x1="357" y1="159" x2="357" y2="237" gradientUnits="userSpaceOnUse">
      <stop stop-color="#D9D8D6"></stop>
      <stop offset="1" stop-color="#D9D8D6" stop-opacity="0"></stop>
    </linearGradient>
    <linearGradient id="paint2_linear_154_3194" x1="120" y1="235" x2="120" y2="313" gradientUnits="userSpaceOnUse">
      <stop stop-color="#D9D8D6"></stop>
      <stop offset="1" stop-color="#D9D8D6" stop-opacity="0"></stop>
    </linearGradient>
  </defs>
</svg>
