<svg width="96" height="96" viewBox="0 0 96 96" fill="none" xmlns="http://www.w3.org/2000/svg">
<path fill-rule="evenodd" clip-rule="evenodd" d="M23.4246 48.8173L20.4446 48.6741C20.5729 46.0147 21.0293 43.3837 21.8019 40.8525L24.6537 41.7236C23.9526 44.0176 23.5395 46.4055 23.4246 48.8173Z" fill="white"/>
<path fill-rule="evenodd" clip-rule="evenodd" d="M22.3222 61.1821C21.4094 58.6644 20.8158 56.0334 20.5577 53.3635L23.5274 53.0771C23.7615 55.4964 24.2985 57.8814 25.1278 60.1649L22.3222 61.1821Z" fill="white"/>
<path fill-rule="evenodd" clip-rule="evenodd" d="M52.4746 82.305C40.8795 82.305 30.151 76.0138 24.4787 65.8863L27.0814 64.4306C32.2272 73.6154 41.9564 79.322 52.4746 79.322C68.5115 79.322 81.5594 66.2741 81.5594 50.2372C81.5594 34.2003 68.5115 21.1525 52.4746 21.1525C41.2763 21.1525 31.2592 27.4035 26.3357 37.4683L23.6554 36.1587C29.0845 25.0618 40.1293 18.1694 52.4746 18.1694C70.1567 18.1694 84.5424 32.5552 84.5424 50.2372C84.5424 67.9193 70.1567 82.305 52.4746 82.305Z" fill="white"/>
<path fill-rule="evenodd" clip-rule="evenodd" d="M52.4746 74.4746C46.2341 74.4746 40.3068 72.109 35.7859 67.8119L37.8383 65.6507C41.8057 69.4168 47.0022 71.4915 52.4746 71.4915C64.1935 71.4915 73.7289 61.9562 73.7289 50.2373C73.7289 38.5184 64.1935 28.9831 52.4746 28.9831C46.9604 28.9831 41.7327 31.0861 37.7533 34.9074L35.6875 32.7536C40.2247 28.3984 46.1863 26 52.4746 26C65.8387 26 76.7119 36.8732 76.7119 50.2373C76.7119 63.6014 65.8387 74.4746 52.4746 74.4746Z" fill="#50C3FC"/>
<path fill-rule="evenodd" clip-rule="evenodd" d="M27.8644 11.4577H36.8135V8.47461H27.8644V11.4577Z" fill="#50C3FC"/>
<path fill-rule="evenodd" clip-rule="evenodd" d="M89.1043 36.9359C86.2719 29.0084 80.7965 22.1206 73.6864 17.5446C71.3149 16.0202 68.7719 14.7539 66.1304 13.7859L67.155 10.9863C70.0039 12.0289 72.7453 13.3922 75.3003 15.0358C82.9607 19.9668 88.8597 27.3886 91.9129 35.9306L89.1043 36.9359Z" fill="#50C3FC"/>
<path fill-rule="evenodd" clip-rule="evenodd" d="M53.9662 91.9999H33.8306V89.0168H53.9662C66.1952 89.0168 77.4159 83.3923 84.7498 73.5825L87.1377 75.3694C79.2356 85.9383 67.1453 91.9999 53.9662 91.9999Z" fill="#50C3FC"/>
<path fill-rule="evenodd" clip-rule="evenodd" d="M57.6949 15.9324H54.7119V12.9494H50.2373V15.9324H47.2543V9.96631H57.6949V15.9324Z" fill="white"/>
<path fill-rule="evenodd" clip-rule="evenodd" d="M45.7628 9.9661H59.1866V6.98305H45.7628V9.9661ZM42.7798 12.9492H62.1696V4H42.7798V12.9492Z" fill="white"/>
<path fill-rule="evenodd" clip-rule="evenodd" d="M11.4578 38.3053H32.3391V35.3223H11.4578V38.3053Z" fill="white"/>
<path fill-rule="evenodd" clip-rule="evenodd" d="M4 50.2374H27.8644V47.2544H4V50.2374Z" fill="white"/>
<path fill-rule="evenodd" clip-rule="evenodd" d="M9.96619 62.1696H30.8475V59.1865H9.96619V62.1696Z" fill="white"/>
<path fill-rule="evenodd" clip-rule="evenodd" d="M56.9695 47.6636L54.7993 45.6157L64.0677 35.7896L66.2378 37.8374L56.9695 47.6636Z" fill="#50C3FC"/>
<path fill-rule="evenodd" clip-rule="evenodd" d="M24.8813 92.0001H30.8474V89.0171H24.8813V92.0001Z" fill="#50C3FC"/>
<path fill-rule="evenodd" clip-rule="evenodd" d="M18.9152 92.0001H21.8982V89.0171H18.9152V92.0001Z" fill="#50C3FC"/>
<path fill-rule="evenodd" clip-rule="evenodd" d="M18.9152 11.4577H24.8813V8.47461H18.9152V11.4577Z" fill="#50C3FC"/>
<path fill-rule="evenodd" clip-rule="evenodd" d="M12.9492 11.4577H15.9323V8.47461H12.9492V11.4577Z" fill="#50C3FC"/>
<path fill-rule="evenodd" clip-rule="evenodd" d="M52.4746 47.6271C51.0352 47.6271 49.8644 48.7979 49.8644 50.2373C49.8644 51.6766 51.0352 52.8474 52.4746 52.8474C53.9139 52.8474 55.0847 51.6766 55.0847 50.2373C55.0847 48.7979 53.9139 47.6271 52.4746 47.6271ZM52.4746 55.8305C49.3916 55.8305 46.8813 53.3202 46.8813 50.2373C46.8813 47.1543 49.3916 44.644 52.4746 44.644C55.5576 44.644 58.0678 47.1543 58.0678 50.2373C58.0678 53.3202 55.5576 55.8305 52.4746 55.8305Z" fill="#50C3FC"/>
<path fill-rule="evenodd" clip-rule="evenodd" d="M26.772 27.1451L24.663 25.0361L30.1458 19.5532L32.2548 21.6622L26.772 27.1451Z" fill="white"/>
<path fill-rule="evenodd" clip-rule="evenodd" d="M31.2844 28.2824L27.4034 24.403L29.514 22.2939L33.3934 26.1734L31.2844 28.2824Z" fill="white"/>
</svg>
